/* XPM */
static char *_857f9d589e54afeed401f57a36f7bc7q2dfA5keEAaRroAA[] = {
/* columns rows colors chars-per-pixel */
"82 82 228 2 ",
"   c None",
".  c #000008",
"X  c #000013",
"o  c #00011B",
"O  c #000A1E",
"+  c #03121E",
"@  c #2A0000",
"#  c #361A14",
"$  c #37231C",
"%  c #000626",
"&  c #001524",
"*  c #001926",
"=  c #0F1C26",
"-  c #011D2A",
";  c #0A1F2A",
":  c #051528",
">  c #121D25",
",  c #001E32",
"<  c #04212D",
"1  c #0D222E",
"2  c #13242E",
"3  c #1B252D",
"4  c #012631",
"5  c #092732",
"6  c #162631",
"7  c #182731",
"8  c #162934",
"9  c #1B2933",
"0  c #192C38",
"q  c #18323E",
"w  c #22252B",
"e  c #222C34",
"r  c #272C33",
"t  c #2C3137",
"y  c #26313A",
"u  c #2C333B",
"i  c #2B373C",
"p  c #31363D",
"a  c #34393E",
"s  c #3A3636",
"d  c #3B272F",
"f  c #4A1A00",
"g  c #58331E",
"h  c #4C2815",
"j  c #693510",
"k  c #400022",
"l  c #572827",
"z  c #5D3923",
"x  c #573523",
"c  c #443635",
"v  c #533C34",
"b  c #49282B",
"n  c #63272B",
"m  c #633C24",
"M  c #6A3F26",
"N  c #564237",
"B  c #6C4226",
"V  c #67452B",
"C  c #734425",
"Z  c #7D4B29",
"A  c #794827",
"S  c #785624",
"D  c #694B36",
"F  c #744D36",
"G  c #795338",
"H  c #6E513B",
"J  c #77421A",
"K  c #2E3941",
"L  c #283B47",
"P  c #353B41",
"I  c #3B3E43",
"U  c #303E48",
"Y  c #003347",
"T  c #3D4146",
"R  c #3D4349",
"E  c #37434A",
"W  c #3E4A52",
"Q  c #364752",
"!  c #424246",
"~  c #44454A",
"^  c #4B4A4E",
"/  c #49484A",
"(  c #564D4D",
")  c #4E4C50",
"_  c #424C55",
"`  c #514F52",
"'  c #495359",
"]  c #555255",
"[  c #595457",
"{  c #53555A",
"}  c #5A5659",
"|  c #5E595B",
" . c #53595B",
".. c #59574C",
"X. c #6A5948",
"o. c #7B5B46",
"O. c #6B4F51",
"+. c #615C5E",
"@. c #6C5959",
"#. c #734D4E",
"$. c #696859",
"%. c #756852",
"&. c #555C63",
"*. c #5A5F63",
"=. c #645E60",
"-. c #5A6267",
";. c #656163",
":. c #696365",
">. c #6E6B6A",
",. c #676869",
"<. c #79746A",
"1. c #686D72",
"2. c #6D767B",
"3. c #7D7C7D",
"4. c #777776",
"5. c #717070",
"6. c #BD1B03",
"7. c #B91D0C",
"8. c #B71E12",
"9. c #AF0800",
"0. c #AA2419",
"q. c #B52116",
"w. c #BB2415",
"e. c #B72519",
"r. c #BA2519",
"t. c #962522",
"y. c #9A2523",
"u. c #913332",
"i. c #B0312B",
"p. c #99251E",
"a. c #C11603",
"s. c #C30E00",
"d. c #C52719",
"f. c #C62E24",
"g. c #8A4D17",
"h. c #88542B",
"j. c #95582C",
"k. c #845534",
"l. c #8E5832",
"z. c #886525",
"x. c #A16031",
"c. c #A86937",
"v. c #B86C36",
"b. c #B97236",
"n. c #AE6A2B",
"m. c #CA753C",
"M. c #CB7B3B",
"N. c #C67637",
"B. c #D27E3C",
"V. c #D37C38",
"C. c #C86216",
"Z. c #984A48",
"A. c #885949",
"S. c #BA5A54",
"D. c #8B6A4E",
"F. c #B5764C",
"G. c #A6754E",
"H. c #957D62",
"J. c #827D7C",
"K. c #837973",
"L. c #827665",
"P. c #B16E6E",
"I. c #C7554E",
"U. c #C87E44",
"Y. c #D7716B",
"T. c #E06764",
"R. c #A18025",
"E. c #CE823B",
"W. c #D2833C",
"Q. c #D38A3A",
"!. c #D9883B",
"~. c #D79832",
"^. c #DCA62E",
"/. c #DAB62A",
"(. c #DDA630",
"). c #E5BE2D",
"_. c #E7C22B",
"`. c #E8C62A",
"'. c #EDCA2B",
"]. c #F3D22B",
"[. c #BD8258",
"{. c #9A8268",
"}. c #8B8577",
"|. c #988972",
" X c #9C9279",
".X c #8B846D",
"XX c #AB987A",
"oX c #BB886A",
"OX c #CD8349",
"+X c #DB8745",
"@X c #D08C5A",
"#X c #C48B67",
"$X c #CC996A",
"%X c #CFA175",
"&X c #757D82",
"*X c #7C7E81",
"=X c #807F80",
"-X c #7D8388",
";X c #878788",
":X c #948D8A",
">X c #8D9396",
",X c #939495",
"<X c #939799",
"1X c #9B9B9B",
"2X c #96989B",
"3X c #8F928E",
"4X c #A59D83",
"5X c #A49B96",
"6X c #A98F81",
"7X c #ACA286",
"8X c #B8A787",
"9X c #BFB08F",
"0X c #A9A39D",
"qX c #BDB090",
"wX c #969DA0",
"eX c #9CA2A6",
"rX c #A3A3A2",
"tX c #ADADA8",
"yX c #C3B18E",
"uX c #C2B392",
"iX c #CBBA96",
"pX c #CABD9A",
"aX c #C8B793",
"sX c #CAAC85",
"dX c #D18B8B",
"fX c #D2C39D",
"gX c #CEC09C",
"hX c #CDC3A0",
/* pixels */
"                                                                                  g                                                                                 ",
"                                                                    A.g     m h.h.N.        m                                                                       ",
"                                                                    o.g   B !.x.x.m   z z x B.                                                                      ",
"                                                                  C N.M.m B.M.x.x.m z M._./.S                                                                       ",
"                                                                  C b.M.h.~.M.b.b.z.Z Q.^.^.S v                                                                     ",
"                                                                  C b.M.E._.m.~.~._.m._.Q.M.B x x j.N.m.V.                                                          ",
"                                                              M z S /.).M.`._._._._._.E.B z v.).Q.j.C M A                                                           ",
"                                                                h.W.M.Q._._.E.~.~._._._.M.N.).Q.g.K.                                                                ",
"                                                                h.B.m.M.'._.m.~.~.`.`.`.E.M._.Q.J }.                                                                ",
"                                                              x z.'.).).N.V.).^.^.N.N._.E.M.V.C m                                                                   ",
"                                                              k S ]._.).m.!.`.(.(.M.B.`.W.B.B.B z                                                                   ",
"                                                      m B h.R.`./.Q.)._.m.C Q.W.W.M.A Q.j j M.N.M.B.W.W.!.h.                                                        ",
"                                                              c.!.M.Q.E.A N.j j.j.W.f V.yX8XG M.h.C C C Z                                                           ",
"                                                                j.W.M.M.m OXqXH.H.C uXC aXyXD M.C b / / (                                                           ",
"                                                                Z W.M.M.m OXpX{.{.g pXx aX9XD M.C $ / ] [                                                           ",
"                                                                j.B.v.v.B OXXXD.D.g pXD aXyXG c.j 6X                                                                ",
"                                                              C M.M.C m H aXF j j z gXuXpXaXOXA M.F.V g z                                                           ",
"                                                      m B Z j.M.N.Z n.n.H pX  ;X;Xr X.OXiXqXX.w h.                                                                  ",
"                                                              g.Z H 8XyXv iX  0X5Xx b.sXpX9XH e                                                                     ",
"                                                              iX@ A F.@X+XpX  5X5X@ C.iXpX9Xv 7                                                                     ",
"                                                                  Z N.V.+XhXaXuXuX8XsXiXfXiXOXv                                                                     ",
"                                                                m C Z h.F $XhXpXpXaXfXfX$.%.F                                                                       ",
"                                                                    G g 4 D @X%X%XpXD.%.V.v.s                                                                       ",
"                                                                    <.N r k.k.G.G.$XH.j.h.G !                                                                       ",
"                                                                        c N.< D D M.uXU.$ i                                                                         ",
"                                                                        # +X% V V W.fX+X$ E                                                                         ",
"                                                                    W I 3X  m.k.k.D $.C                                                                             ",
"                                                                * < q 9 *.o       b.n.3Xr 2 7                                                                       ",
"                                                              t ] ` ) ` ^ ) : 2.2.  B.  > 6 8 6                                                                     ",
"                                                              a ;.+.+.+.+.| < &X&X  +X  X 6 7 8                                                                     ",
"                                                              e ~ +.+.| I | )  .{ *   1Xw 2 7 8                                                                     ",
"                                                              8 t +.T I 9 =.+.] ] ` o rXr 2 7 8                                                                     ",
"                                                          -X1.* e I 1 1 9 ! T ^ ^ +.) ,.3 6 7 8                                                                     ",
"                                                          >X2.o 6 1 7 7 7 1 * p p | | * 1 1 6 8                                                                     ",
"                                                      2 I &.{ ! 1 7 8 8 7 9 ` I T a a 7 P I 9 8                                                                     ",
"                                                      0 r a ! [ < 7     9 9 ~ I T ^ ^ % 8X:Xp 6 o >X                                                                ",
"                                                      8 y R / ] < 2     9 6 1 y y ~ ~ ~     y 2 X eX                                                                ",
"                                                    2 8 y T ^ ] 1 e     y 6 7 6 6 1 - +.    X 2 o >X&X1.1.                                                          ",
"                                                    6 - 9 I ~ } <       y 9 7 7 7 7 * 3X:.+.4.P * &. .' &.                                                          ",
"                                                    p ^ ~ a I T 1         9 7 7 7 6 ~   ( =.1X~ 2 * - ; 1                                                           ",
"                                                    R ;.[ u u < 9         9 7 7 7 2 +.  f } 2XR 2 7 7 7 8                                                           ",
"                                                    T +.] u u 6 7         9 7 7 7 2 }   h +.2XR 2 7 7 7 8                                                           ",
"                                                  - I =.[ u u 6 9       7 9 7 6 6 1 3.  $ ! 2X} e 6 7 7 9 7                                                         ",
"                                                  y T ` ~ y y 2 2       0 7 7 e e u rX@.= & 1X:.r 2 7 7 7 0                                                         ",
"                                                  I ^ 8 9 9 7 >         8 7 9 p p `   J.w 0 <X;Xa 2 7 7 7 8                                                         ",
"                                                - ~ ] - 6 6 2 2         8 6 1 t t [   -Xe y   rXI * 6 7 9 , ,                                                       ",
"                                  ] P * 8 2 K U < u T * 1 2 2 2         9 9 ~ } } ;X,X& 6 2 * J.5.R 5 4 , k.v L                                                     ",
"                              | :.I _ &.U 2 6 w s s a E P y y >     ' 2 7 e =.J.J.eX^ 7 7 7 2 a 1X5.c c 5 U.A.L _                                                   ",
"                              +.:.I -.-XW 1 4 N j.G.4X4X}.W W % :   _ 2 6 9 :.:X:X  u 7 7 7 6 - 5X|.c.x.j.%X7X}.-.                                                  ",
"                              ) ] I       9 , G N.#X7X7X XX.o.k.U   E 2 6 ~ =.:X:X  6 7 7 7 7 % }.{.oX#X#XXX4X|..X$.                                                ",
"                          1X;Xa -           - F N.[.>.% c o.A.F.Q 1 2 9 I ;.      ] 9 7 7 7 7 6 : ,.>XwXeXQ ..%.uX X                                                ",
"                          1X3.a * ,.          G N.$X4X) } } { Q * 9 6 r ;.  | T T - 7 7 7 7 7 < [ 4.<X1X0XU 7XfXfX.X                                                ",
"                            5.! a *X          G M.F._ P P P P I ! ! 2 u ;X  I y y 7 7 7 7 7 7 1 ^ :.3.J.3.L.|. X4X$.                                                ",
"                              =.>.I           H G.l.4 1 2 2 1 r [ ` P ^ ;X` < 6 2 7 7 7 7 7 7 2 P r o o . XXX.o .                                                   ",
"                                =.!           L Y q ^ < 6 6 7 2 * 9 ^ ` w p 6 7 7 7 7 7 7 7 7 6 a P 9 7 9 o % u                                                     ",
"                                        K 8 8 6 2 2 1 9 9 9 9 9 r 6 - 3 | } 6 9 9 7 7 7 7 7 7 6 a I e 7 8                                                           ",
"                              i U 0 &X-XR ; 7 7 7 7 7 6 e p p ^ ,.* 7 9 T I ! t u 7 7 7 7 7 7 2 P ^ y 6 8                                                           ",
"                              2 6 7 O o 2 9 7 7 7 6 6 6 y ~ / 5.2XX 7 6 1 9 +.R ! 6 2 7 7 7 7 2 P +.p 1 8                                                           ",
"                              9 9 7 7 7 7 7 6 1 - e p < r R ] J.*X% 7 6 2 e ] I T P P 6 7 7 7 6 p ` I a I                                                           ",
"                        6 8 8 9 7 7 7 7 7 6 e ! { | =.        :X. 9 7 9 p 6 < u u [ [ a 7 6 7 7 6 o [ +.;.R                                                         ",
"                > = 2 9 9 7 7 7 7 7 7 7 8 1 ^ J.0XtX  @.( P y . 9 9 7 t +.1 7 2 2 - - | e 7 9 7 9 & ] +.+.I                                                         ",
"              K 5 - 4 4 6 7 7 7 7 6 1 1 r ) >.J.;X-X  Z.#.c c 5 e P 7 r | 1 7 7 7 7 6 ~ I I I 9 e t [ +.+.I                                                         ",
"              4 l n l n d 6 6 1 - 9 ~ ' =.3X<X  A.#.Z.a.0.n n 4 u +.6 u | 1 7 7 7 7 7 - ] } } P ! | +.| +.I                                                         ",
"            5 b r.d.w.e.n 0 a ^ ] +.;X2X2XK.#.Z.6.6.8.0.t.l l 5 I ] y T | 1 7 7 7 7 7 7 - - * ] } ] | | +.~                                                         ",
"      -X>XP 4 r.r.e.0.d - / >.5XtXrX3.) ' u.s.7.e.e.t.4 4 4 4 p | 2 | +.} 1 7 7 7 7 7 7 7 7 7 < - X ] +.| ;.I K {                                                   ",
"    <X&X&XK 4 0.0.0.p.b 0 ^ ;.;X,X,XK.#.@.Z.7.e.e.e.y.4 7 7 2 t } 9 } | ] 2 7 7 7 7 7 7 7 7 7 7 9 & ^ [ ] +.! 3 3.                                                  ",
"    X E R 9     - - 4 0 } @.#.O.O.O.u.a.6.w.e.e.e.r.y.4 7 7 2 p } e [ ~ - 7 7 7 7 7 7 7 7 7 7 6 9 u 2 - * ^ } | [                                                   ",
"    * eXtX    2 y y u } +.i.6.7.7.6.w.e.e.e.e.e.e.e.t.4 7 7 2 p } e } ~ 2 7 7 7 7 7 7 7 7 7 7 2 P } P y y r 1 - ^ | :.+.                                            ",
"    * >XeX  2 < ] | ;.  a.w.e.e.d.          d.e.e.t.4 7 7 7 2 t } e } ~ 2 7 7 7 7 7 7 7 7 7 7 7 6 * ] | } +.a 1 2 & ~ =.:.;.=.:.|                                   ",
"    * <XeX  2 < ] } =.  w.r.e.e.d.          d.e.e.t.4 6 7 6 2 t } e } ~ 2 7 7 7 7 7 7 7 7 7 7 7 9 - ` } } | a 1 9 ; ~ +.+.| | +.}                                   ",
"    & >X2X  2 1 ] | }   7.q.i.e.8.          d.e.w.t.4 6 9 y r a } 9 [ ^ 2 7 7 7 7 7 7 7 7 7 7 7 9 & ] +.+.| I e 9 1 ~ } } | +.=.]   5X;X3.                          ",
"            9 7           7.T.            e.d.e.r.y.4 2 P =.+.| ] y } ^ 2 7 7 7 7 7 7 7 7 7 7 7 9 + ] +.+.y ` | P 2 1 8 < ! | } | | ] +.|                           ",
"            7           q.f.I.          i.f.i.i.r.y.4 2 P =.} y y =.| ~ 2 7 7 7 7 7 7 7 7 7 7 7 7 * ] +.+.p ` } P       ' i K K y - I | | =.+.+.+.+.+.>.:.|         ",
"      -.,.K 8           9.Y.        S.Y.I.S.dXP.n b 4 2 P +.[ t t +.| ~ 2 7 7 7 7 7 7 7 7 7 7 7 7 - ] +.+.p ` } P         >X2XwX2.X y P p P P P P u   5X5X          ",
"      + + 2 7           q.          7.a.8.9.    ' - 7 2 P +.[ p y +.| ~ 2 7 7 7 7 7 7 7 7 7 7 7 7 * ] +.+.p ` } P                 7 2 2 2 2 2 2 2 2                 ",
"      = = 2 2           q.          q.q.q.      ' ; 7 2 P +.[ p y +.| ~ 2 7 7 7 7 7 7 7 7 7 6 6 7 * ] | +.u ) [ P                 2 2 2 2 2 2 2 2 2                 ",
"      = = =                                     ' ; 7 2 P +.[ P y +.} / 2 7 7 7 7 7 7 7 6 6 y i i p 9 1 1 y y y K                                                   ",
"      = = =                                   8 2 7 9 7 6 6 6 9 7 2 2 6 7 9 9 9 9 9     + 2 ,X2X2X0X[ - X ;X1X2XrX1.                                                ",
"      = = =                                   Q 9 y P 2 y _ W R P 2 7 6 e -.&.&.&.-.    &.-.5.K.5.;X/ 1 % <.4.<.K.{                                                 ",
"      = = =                                     W ;.;XX 6       2XX 7 6 2                   2 1 2 1 6 7 9 2 2 2 1 8                                                 ",
"                                                ' - 2 7 7 7 7 6 2 7                                                                                                 ",
"                                                                                                                                                                    "
};
