/* XPM */
static char *f7b5eb4d988d496cba620792ecd25912M3hQUeU6EskuZtkm[] = {
/* columns rows colors chars-per-pixel */
"82 82 228 2 ",
"   c None",
".  c #000008",
"X  c #000013",
"o  c #00011B",
"O  c #000A1E",
"+  c #03121E",
"@  c #2A0000",
"#  c #361A14",
"$  c #37231C",
"%  c #000626",
"&  c #001524",
"*  c #001926",
"=  c #0F1C26",
"-  c #011D2A",
";  c #0A1F2A",
":  c #051528",
">  c #121D25",
",  c #001E32",
"<  c #04212D",
"1  c #0D222E",
"2  c #13242E",
"3  c #1B252D",
"4  c #012631",
"5  c #092732",
"6  c #162631",
"7  c #182731",
"8  c #162934",
"9  c #1B2933",
"0  c #192C38",
"q  c #18323E",
"w  c #22252B",
"e  c #222C34",
"r  c #272C33",
"t  c #2C3137",
"y  c #26313A",
"u  c #2C333B",
"i  c #2B373C",
"p  c #31363D",
"a  c #34393E",
"s  c #3A3636",
"d  c #3B272F",
"f  c #4A1A00",
"g  c #58331E",
"h  c #4C2815",
"j  c #693510",
"k  c #400022",
"l  c #572827",
"z  c #5D3923",
"x  c #573523",
"c  c #443635",
"v  c #533C34",
"b  c #49282B",
"n  c #63272B",
"m  c #633C24",
"M  c #6A3F26",
"N  c #564237",
"B  c #6C4226",
"V  c #67452B",
"C  c #734425",
"Z  c #7D4B29",
"A  c #794827",
"S  c #785624",
"D  c #694B36",
"F  c #744D36",
"G  c #795338",
"H  c #6E513B",
"J  c #77421A",
"K  c #2E3941",
"L  c #283B47",
"P  c #353B41",
"I  c #3B3E43",
"U  c #303E48",
"Y  c #003347",
"T  c #3D4146",
"R  c #3D4349",
"E  c #37434A",
"W  c #3E4A52",
"Q  c #364752",
"!  c #424246",
"~  c #44454A",
"^  c #4B4A4E",
"/  c #49484A",
"(  c #564D4D",
")  c #4E4C50",
"_  c #424C55",
"`  c #514F52",
"'  c #495359",
"]  c #555255",
"[  c #595457",
"{  c #53555A",
"}  c #5A5659",
"|  c #5E595B",
" . c #53595B",
".. c #59574C",
"X. c #6A5948",
"o. c #7B5B46",
"O. c #6B4F51",
"+. c #615C5E",
"@. c #6C5959",
"#. c #734D4E",
"$. c #696859",
"%. c #756852",
"&. c #555C63",
"*. c #5A5F63",
"=. c #645E60",
"-. c #5A6267",
";. c #656163",
":. c #696365",
">. c #6E6B6A",
",. c #676869",
"<. c #79746A",
"1. c #686D72",
"2. c #6D767B",
"3. c #7D7C7D",
"4. c #777776",
"5. c #717070",
"6. c #BD1B03",
"7. c #B91D0C",
"8. c #B71E12",
"9. c #AF0800",
"0. c #AA2419",
"q. c #B52116",
"w. c #BB2415",
"e. c #B72519",
"r. c #BA2519",
"t. c #962522",
"y. c #9A2523",
"u. c #913332",
"i. c #B0312B",
"p. c #99251E",
"a. c #C11603",
"s. c #C30E00",
"d. c #C52719",
"f. c #C62E24",
"g. c #8A4D17",
"h. c #88542B",
"j. c #95582C",
"k. c #845534",
"l. c #8E5832",
"z. c #886525",
"x. c #A16031",
"c. c #A86937",
"v. c #B86C36",
"b. c #B97236",
"n. c #AE6A2B",
"m. c #CA753C",
"M. c #CB7B3B",
"N. c #C67637",
"B. c #D27E3C",
"V. c #D37C38",
"C. c #C86216",
"Z. c #984A48",
"A. c #885949",
"S. c #BA5A54",
"D. c #8B6A4E",
"F. c #B5764C",
"G. c #A6754E",
"H. c #957D62",
"J. c #827D7C",
"K. c #837973",
"L. c #827665",
"P. c #B16E6E",
"I. c #C7554E",
"U. c #C87E44",
"Y. c #D7716B",
"T. c #E06764",
"R. c #A18025",
"E. c #CE823B",
"W. c #D2833C",
"Q. c #D38A3A",
"!. c #D9883B",
"~. c #D79832",
"^. c #DCA62E",
"/. c #DAB62A",
"(. c #DDA630",
"). c #E5BE2D",
"_. c #E7C22B",
"`. c #E8C62A",
"'. c #EDCA2B",
"]. c #F3D22B",
"[. c #BD8258",
"{. c #9A8268",
"}. c #8B8577",
"|. c #988972",
" X c #9C9279",
".X c #8B846D",
"XX c #AB987A",
"oX c #BB886A",
"OX c #CD8349",
"+X c #DB8745",
"@X c #D08C5A",
"#X c #C48B67",
"$X c #CC996A",
"%X c #CFA175",
"&X c #757D82",
"*X c #7C7E81",
"=X c #807F80",
"-X c #7D8388",
";X c #878788",
":X c #948D8A",
">X c #8D9396",
",X c #939495",
"<X c #939799",
"1X c #9B9B9B",
"2X c #96989B",
"3X c #8F928E",
"4X c #A59D83",
"5X c #A49B96",
"6X c #A98F81",
"7X c #ACA286",
"8X c #B8A787",
"9X c #BFB08F",
"0X c #A9A39D",
"qX c #BDB090",
"wX c #969DA0",
"eX c #9CA2A6",
"rX c #A3A3A2",
"tX c #ADADA8",
"yX c #C3B18E",
"uX c #C2B392",
"iX c #CBBA96",
"pX c #CABD9A",
"aX c #C8B793",
"sX c #CAAC85",
"dX c #D18B8B",
"fX c #D2C39D",
"gX c #CEC09C",
"hX c #CDC3A0",
/* pixels */
"                                                                                g                                                                                   ",
"                                                                      m         m.h.h.m     g %.                                                                    ",
"                                                                      B.l z m   m x.x.!.C   g o.                                                                    ",
"                                                                      S )._.M.z m x.x.M.B.m M.N.C                                                                   ",
"                                                                    v S ^.^.Q.S z.n.n.U.~.h.M.b.A                                                                   ",
"                                                          V.m.N.j.g l B E.E._.N.).~.~.M.).E.M.v.C                                                                   ",
"                                                          C M C j.Q._.v.z B W._._._._._._.V._./.S z M                                                               ",
"                                                                K.g.Q.).N.M._._._.^.~.M._.).E.M.B.h.                                                                ",
"                                                                }.J +X`.M.M.`.`.`.~.~.m._.'.M.m.B.h.                                                                ",
"                                                                  M C M.V.E._.N.N.^.^.).V.N._.).'.z.x                                                               ",
"                                                                  z B M.W.!.`.!.V.^.^.`.!.m.)._.].S k                                                               ",
"                                                        l.!.W.W.M.M.N.M.j j W.A M.W.W.!.C m._.).Q./.`.R.z.B M                                                       ",
"                                                          Z C A A h.M.H 8XyXV.f B.j.j.j b.A E.Q.m.+Xc.                                                              ",
"                                                          ( / N b B U.D 9XiXC 9XJ H.H.qXW.m M.B.W.j.                                                                ",
"                                                          } ( / $ A M.D 9XaXx pXg |.{.gXOXm M.U.W.h.                                                                ",
"                                                                XXj n.G yXaXD pXg D.D.4XOXB n.v.W.j.                                                                ",
"                                                          z z V F.V.A OXyXgX9XgXz j j G aXH M M M.M.C                                                               ",
"                                                                  h.w X.qXgXOXX.r ;X;X  iXH C.n.A M.B.l.Z V m                                                       ",
"                                                                    e D 9XgXsXb.x 0X5X  iXv uX8XH A g.                                                              ",
"                                                                    2 N 8XgXgXC.@ 5X5X  pX+XU.F.A @ iX                                                              ",
"                                                                    v OXgXfXaX%X8XyXuXiXpX+XB.N.A                                                                   ",
"                                                                      H X.%.fXfXaXpXpXhX$XF k.h.B m                                                                 ",
"                                                                      s b.W.%.%.gX%X%X@XD - g o.                                                                    ",
"                                                                      T Z j.j.{.$XD.G.k.k.r v L.                                                                    ",
"                                                                        i $ U.uXB.F D < b.c                                                                         ",
"                                                                        E $ +XfXU.V V % V.#                                                                         ",
"                                                                            C ,.D k.k.U.  :XI Q                                                                     ",
"                                                                      7 2 r 3Xn.b.      o *.0 y 4 *                                                                 ",
"                                                                    3 9 7 >   B.  2.2.: ) ^ ` ) ` [ t                                                               ",
"                                                                    0 7 7 X   !.  &X&X< | +.+.+.+.=.P                                                               ",
"                                                                    0 2 3 w 1X  : { { ` +.I +.+.+.~ e                                                               ",
"                                                                    9 3 2 t rXo ` ] ] +.+.9 I I +.u 0                                                               ",
"                                                                    9 7 2 w ,.) +.^ ^ T ! 9 1 2 I e * 1.&X                                                          ",
"                                                                    0 6 1 1 * | | p p * 1 9 7 9 2 6 o 2.>X                                                          ",
"                                                                    9 e I U 9 a a T I ` 9 7 9 9 7 1 ! { *.I 2                                                       ",
"                                                                >Xo 6 i :X8X% ^ ^ I E ~ 9 9     7 < [ ! a e 0                                                       ",
"                                                                eXX 6 i     ~ ~ ~ y e 1 6 8     6 < ] / R y 7                                                       ",
"                                                          1.1.&X>Xo 6 X     =.- 1 6 6 9 7 y     0 1 [ / T y 6 2                                                     ",
"                                                          &.'  .&.- P 4.+.:.,X: 7 7 7 7 0 y       < [ ~ I 9 < 6                                                     ",
"                                                          1 ; - : 6 ~ 1X+.(   ~ 6 7 7 6 9         2 T I a ~ / a                                                     ",
"                                                          0 7 7 6 2 R 1X[ f   =.2 7 7 7 9         7 < u u [ +.!                                                     ",
"                                                          9 7 7 6 1 E 1X[ h   [ 2 7 7 7 9         9 6 a P [ +.E                                                     ",
"                                                        7 9 7 7 2 e [ 2X! $   =X1 6 6 7 0 7       9 2 u u [ ;.T -                                                   ",
"                                                        0 7 7 7 2 r >.1X+ = @.rXu e e 7 7 0       > 2 y y / ) T y                                                   ",
"                                                        9 7 7 7 2 a ;X,X0 3 J.  ` p p 7 7 0         2 7 9 0 7 ^ I                                                   ",
"                                                      4 4 7 7 7 & I rX  y w *X  ] u u 2 7 7         3 2 7 7 - [ ~ -                                                 ",
"                                                    L v k.- 4 6 ~ 5.-X* 2 6 & ,X;X} { ~ 9 7         2 3 2 1 * T u 4 U K 6 8 * I `                                   ",
"                                                  W L A.U.4 s c <.1Xs 6 9 7 3 ) 1XJ.=X=.r 7 6 '     = y y a E a s s 3 6 6 U &.W I >.+.                              ",
"                                                  *.}.8X%Xj.x.c.{.1X- 2 7 7 7 u   :X:X:.9 6 2 _   : % ~ R }.XX4XH.j.N < 2 W -X-.I :.=.                              ",
"                                                $..X|.XX4X#X#XoX{.}.% 7 7 7 7 6   :X:X=.! 6 2 E   U k.o.X. X7X7X#XN.F 4 9       I ` )                               ",
"                                                 XaX$...Q eXwX,X>.: 6 7 7 7 7 9 ]       ;.I e 2 5 E F.A.o.s % ,.[.N.F -           - a ;X1X                          ",
"                                                }.fXfX7XL 0X1X,X3.[ < 7 7 7 7 7 - ! I +.  :.e 2 9 * Q  .{  .) 7X$XN.G           ,.: a *X1X                          ",
"                                                $.7X X|.L.=XJ.3.:.^ 1 2 7 7 7 7 0 u u I   ;Xu 2 ! ! I a a I K ' F.N.G           *Xs ! 5.                            ",
"                                                  . o @.XX. X O r I 2 9 7 7 7 6 7 2 6 - ` ;X/ P ` [ t 1 1 1 1 4 l.F.H           I >.=.                              ",
"                                                    u % X 9 9 9 a a 2 9 7 7 7 7 7 7 7 6 a 3 ] ^ 7 * 2 7 7 7 < ^ q Y L           ! =.                                ",
"                                                          9 6 e T a 2 7 7 7 7 7 7 9 9 6 [ | 3 - 6 t 9 9 9 7 7 1 1 2 7 0 0 K                                         ",
"                                                          0 2 u ^ I 2 7 7 7 7 7 9 u u ~ I E 9 9 * ,.) P K e 7 7 9 7 7 7 1 R -X&X8 U K                               ",
"                                                          6 2 p +.P 2 7 7 7 7 2 2 ! R +.3 1 7 7 X <X5./ ~ y 7 7 2 7 7 6 7 2 o O 9 6 2                               ",
"                                                          I a T ] a 2 7 7 7 6 P a T T ] e 2 9 3 % =XJ.] R y , I e < 1 6 7 7 7 7 2 9 9                               ",
"                                                        R ;.+.{ o 2 7 7 6 9 a } [ p i < 2 a 9 9 7 . :X        =.|  .! e 6 7 7 7 9 2 9 0 0 7                         ",
"                                                        I =.| [ & 9 3 9 7 e | - < 2 2 7 1 +.u 7 7 7 . u I ( @.  tX5XJ.^ < 8 7 7 7 7 7 7 7 7 7 6 ; >                 ",
"                                                        I =.| [ u e 9 I T a / 6 7 7 6 7 1 +.t 7 I e 1 c c M Z.  -X;XJ.>.` e 1 1 7 7 7 7 7 8 4 4 - 1 K               ",
"                                                        I +.+.+.| ! a | [ ] - 6 7 7 7 6 1 | u 2 +.p 4 n n 0.a.Z.#.A.  <X;X$.{ ~ w < 1 1 5 d n n n l 4               ",
"                                                        ~ +.| | ] [ ] * < < 9 6 7 7 7 3 2 } T t ] a 5 l l t.0.8.6.6.Z.#.J.,X2X;X-.` ) P 0 n q.q.d.e.b 5             ",
"                                                  { L a =.+.+.] X < < 7 7 7 7 7 7 7 7 7 1 | +.| 2 | p < 4 4 4 t.r.e.7.a.l.{ ( =XrXtX5X>./ - d 0.r.r.r.4 P >X-X      ",
"                                                  3.3 ! +.] ] ) + 9 6 7 7 7 7 7 7 7 7 7 1 ] | [ 9 [ t 2 7 7 4 t.r.e.e.7.Z.O.#.J.,X,X;X=.^ 0 b p.0.0.0.4 K &X&X<X    ",
"                                                  ] | | ^ & - 2 u 9 6 7 7 7 7 7 7 7 6 7 9 - ~ [ e | p 2 7 7 4 y.r.e.e.e.8.a.a.u.O.O.#.@.@.[ 8 4 - -     0 Q U X     ",
"                                            +.:.| ) - 1 e t u a | a 6 7 7 7 7 7 7 7 7 7 7 2 ~ { e [ p 2 7 0 4 t.e.e.e.e.8.r.e.r.a.6.6.6.i.+.[ u y u 2     tXeX&     ",
"                                  | ;.=.=.:.=.~ & 2 2 p +.| | ` + 6 6 6 7 7 7 7 7 7 7 7 7 2 ~ [ r } t 2 7 7 9 4 t.r.e.d.          d.r.r.e.a.  ;.| ] - 2   eX>X*     ",
"                                  | +.| +.+.+.~ ; 9 ; p | [ | ` < 9 9 6 7 7 7 7 7 7 7 7 6 2 / [ e } t 2 7 7 7 4 t.r.e.d.          d.q.q.e.q.  =.[ ] 1 2   eX<X:     ",
"                          =X;X5X  ] =.+.| [ | ~ 1 7 e I +.+.+.` + 8 7 7 6 7 7 7 7 7 7 7 7 2 / [ 9 [ a r y 9 7 4 t.r.e.d.          8.e.i.e.7.  { | ] < 2   wX>X&     ",
"                          | +.] | | [ | T - 7 1 6 p | ` t +.+.] + 7 7 7 7 7 7 7 7 7 7 7 7 2 ^  .u ] +.+.+.P 6 4 t.r.e.d.r.            T.8.          9 9             ",
"        | ,.>.+.=.=.=.+.=.| +.I - y K K i '       P [ ] u =.| ] * 7 7 7 7 7 7 7 7 7 7 7 6 6 ~ | +.t u ] =.I 2 4 y.d.i.i.f.i.          I.f.e.          7             ",
"          5X5X  u K P K P K K y X 2.eX2X>X        P [ ` p =.+.] < 7 7 7 7 7 7 7 7 7 7 7 6 6 ~ | +.u u [ +.a 2 4 b n P.dXS.I.T.S.        Y.9.          0 K 1.-.      ",
"                > 6 > 6 > 6 ; 6 7                 P [ ` u =.| [ & 7 7 7 7 7 7 7 7 7 7 7 6 6 ~ | +.u p [ +.I 2 7 - '     9.q.a.8.          e.          7 3 O &       ",
"                7 6 > 6 3 6 6 6 2                 P [ ` u | | ] & 7 2 6 7 7 7 7 7 7 7 7 6 1 ~ } +.u p [ +.P 2 6 1 {       8.e.q.          e.          7 2 = =       ",
"                                                  i i i u 1 1 7 i i u i 7 2 7 7 7 7 7 7 9 2 / [ +.t P ] +.P 2 9 ; '                                     = ; =       ",
"                                                1.rX1X1X;XX < [ tX1X1X,X2 =     9 9 e 9 9 9 6 6 2 6 9 6 6 6 6 9 7 6 9                                   = = >       ",
"                                                ] K.<.4.<.% 1 / ;X5.K.>.-.&.    -.&.&.&.-.e 7 7 2 I E W _ i 1 P y 0 Q                                   = = =       ",
"                                                7 5 2 1 2 7 9 2 1 6 1 2                   2 7 7 X 2X      6 X ;X;.W                                     = = =       ",
"                                                                                                7 2 7 7 7 7 7 2 - '                                                 ",
"                                                                                                                                                                    "
};
