/* XPM */
static char *exit31694357825[] = {
/* columns rows colors chars-per-pixel */
"82 82 123 2 ",
"   c None",
".  c #010000",
"X  c #0E0000",
"o  c #110000",
"O  c #1C0000",
"+  c #240000",
"@  c #2C0000",
"#  c #340000",
"$  c #3B0000",
"%  c #450000",
"&  c #4C0000",
"*  c #520000",
"=  c #5A0000",
"-  c #640000",
";  c #6C0000",
":  c #750000",
">  c #7A0000",
",  c #830000",
"<  c #8C0000",
"1  c #920000",
"2  c #9A0000",
"3  c #930B0B",
"4  c #931313",
"5  c #941B1B",
"6  c #A40000",
"7  c #AC0000",
"8  c #A60B0B",
"9  c #A80808",
"0  c #B30000",
"q  c #BD0000",
"w  c #B30808",
"e  c #BE0F0E",
"r  c #B61111",
"t  c #952323",
"y  c #992121",
"u  c #962A2A",
"i  c #9A2C2C",
"p  c #973131",
"a  c #9A3333",
"s  c #9B3B3B",
"d  c #A23F3F",
"f  c #C30000",
"g  c #CA0000",
"h  c #C50B0A",
"j  c #D40000",
"k  c #DC0000",
"l  c #DE0B0B",
"z  c #C61515",
"x  c #C91515",
"c  c #C51B1B",
"v  c #CA1E1E",
"b  c #E30000",
"n  c #EB0000",
"m  c #F40000",
"M  c #FE0000",
"N  c #FD0C0C",
"B  c #C62323",
"V  c #CD2727",
"C  c #C72A2A",
"Z  c #C92E2E",
"A  c #C73131",
"S  c #C93636",
"D  c #C93C3C",
"F  c #FA2C2C",
"G  c #9D4343",
"H  c #964949",
"J  c #A04444",
"K  c #A14C4C",
"L  c #BB4242",
"P  c #A45454",
"I  c #A75B5B",
"U  c #A95D5D",
"Y  c #B85959",
"T  c #A76262",
"R  c #AB6464",
"E  c #AC6B6B",
"W  c #B06D6D",
"Q  c #AD7373",
"!  c #AD7979",
"~  c #B17373",
"^  c #BA7777",
"/  c #B57B7B",
"(  c #B87E7E",
")  c #CC4343",
"_  c #CC4949",
"`  c #CC5454",
"'  c #CE5959",
"]  c #D95B5B",
"[  c #FC5D5D",
"{  c #CE6363",
"}  c #CF6D6D",
"|  c #CE7171",
" . c #CF7F7F",
".. c #D17373",
"X. c #D37E7E",
"o. c #9137CF",
"O. c #923DCF",
"+. c #984FD1",
"@. c #9C5ED2",
"#. c #9D61D2",
"$. c #A165D4",
"%. c #AC7CD9",
"&. c #B78989",
"*. c #BB8C8C",
"=. c #B69191",
"-. c #BC9494",
";. c #BD9A9A",
":. c #C18E8E",
">. c #D38282",
",. c #D98585",
"<. c #D68A8A",
"1. c #DA8D8D",
"2. c #C39595",
"3. c #C19B9B",
"4. c #D79292",
"5. c #DA9595",
"6. c #D59999",
"7. c #DB9C9C",
"8. c #C5A1A1",
"9. c #C8A4A4",
"0. c #D6A0A0",
"q. c #E0A1A1",
"w. c #BE9EE0",
/* pixels */
"                                                                                                                                                                    ",
"                                                                                                                                                                    ",
"                                                  f f f f f f q f q q f q f f q ,.                                                                                  ",
"                                            X._ ` c B B B B c z c z c z c z z h D ' )                                                                               ",
"                                        5.5.x f f q f f q f g h f h g h h g f h f f f >.  6.3.;.3.3.;.3.=.                                                          ",
"                                      >.q f f f D X.X.X.>...e q q q q f f f f f h x c f f q < < , < < < , I                                                         ",
"                                  f f h D S f q }           d < 3 1 < 0 g f f f f f f z B c 5 5 5 5 5 5 5 1 1 ,                                                     ",
"                                      1.q q       E ! Q ! Q 5 1 1 1 1 2 6 6 g g f g g f q 0 < < < 1 1 1 1 1 3 < P Q ~                                               ",
"                                        7.7.    8., < < < < 1 1 1 1 1 < < 1 0 0 0 0 0 j b j 6 7 2 < 1 1 1 1 3 4 < < < 9.                                            ",
"            1.q f f f 1.                    d , < t t 5 t 5 1 1 1 1 1 1 1 1 < < < < < b M M g j q 1 2 1 2 1 1 1 4 t 5 < > (                                         ",
"            <.q Z                           U 1 t 1 1 1 1 < 1 1 1 1 1 1 1 < > > : : : b M M M M k q q f f q 1 1 1 1 1 u < *.                                        ",
"                                        =.-.a 1 1 1 1 1 1 1 1 1 < , , , , , : : : : : 7 q q b b b n n g f 0 < < < 1 1 1 < K ;.=.                                    ",
"                                      / , < < 1 1 1 1 1 1 1 1 1 < : : : : : : : : : : - * ; 7 6 k M M b j g 6 6 2 1 1 1 3 1 < >                                     ",
"                                  < < 3 u t 1 1 1 1 1 1 1 1 1 1 , : : : : : : : : : : > , > > - f M M M M m f g 7 < 1 1 1 1 p <                                     ",
"                                  1 < 1 1 1 1 1 1 1 1 , > > > > > : : : : : : > ; * * : > > : : < 1 1 m M m q f 7 < 1 1 1 1 1 < K I W                               ",
"                                  1 1 3 1 1 1 1 1 , < > : : : : : : > ; - - - - = % & = - - : : : - ; j n b b b q , 1 < , < 1 1 1 < 1                               ",
"                                  1 1 1 1 1 1 1 < ; : : : : : ; : : : = % & % % & & & & % * : : : > > 7 0 g M M g 1 2 > ; > 1 1 1 5 1 , : (                         ",
"                            / 1 s 1 1 1 1 1 1 1 < > > : > : * & & & & & & & & * & & & & & * : > : : : > : 6 M M k q q , : , 1 1 1 1 1 a < -.          D f           ",
"                            W , 1 1 1 1 2 1 , > ; & & * * * & & & % & & & & & & & & & & & & = = ; > : > - 6 M M m m b , - : , > < 1 1 t < *.          h q 0.        ",
"                            R < u 1 1 < , , < 1 , & * % # # % % & & & & & & & & & & & & & & & % = ; ; : ; 6 M M M M M 6 1 < : : < 1 < t , 2.          C f 7.        ",
"                        > < < 1 1 1 1 < > > q g q ; > = # $ $ $ $ & & & & & & & & & & & & & & & & % & : ; 2 M M M M M j g 0 : : < 1 1 t , 2.          c f 7.        ",
"                        < p 1 1 1 1 < g m m M M b ; > = # $ $ $ $ % $ $ $ $ & & & & & & & & & & & & & ; : > 2 , j M M g f 0 - ; < 1 1 t , 2.          v q 7.        ",
"                        , 5 1 1 1 < > g M M j g q * = & # $ $ $ $ $ $ $ $ $ % % % & & & * & & & & & & ; > : ; & g M m g q q 6 7 1 , , t < 3.          B f 7.        ",
"                      3.< 4 1 1 1 7 6 j M M < & = # # $ $ $ $ $ $ $ $ $ $ $ # # % & & & & & & & & & & ; : ; , - j M M k g j f g 2 - > 5 < (           B q           ",
"                  2 < 1 1 1 2 1 0 M M M M M 2 : ; $ $ $ $ $ $ $ $ $ $ $ $ $ $ $ $ $ $ % & & & & & & & & & * > = g M M M M m q f 1 ; > 1 1 1 1 <       C q           ",
"w.                t 1 1 < < < > 6 M M j 6 7 , : ; # $ $ $ $ $ $ $ $ $ $ $ $ $ $ $ $ $ % & & & & & & & & & * > : 1 7 7 7 6 0 g g 2 ; > 1 1 1 3 <       g f ` 1.>.    ",
"O.                y < 2 7 6 q f j M M f % - - - = $ $ $ $ $ $ $ $ $ $ $ $ $ $ $ $ $ $ & & & & & & & & & & * : : ; - - - = > 0 0 < ; > 1 1 1 1 < 8.    f f f q f     ",
"$.                t < 7 g g m M M m M f ; , % @ $ $ $ $ $ $ $ $ $ $ $ $ $ $ $ $ $ $ $ % & & & & & & & & & = > : > > > > > > ; ; : : > < 1 1 1 1 < , 1 f f v Z h     ",
"@.          &.< t 1 , f M m M M m , < > : : & # $ $ $ $ $ $ $ $ $ $ $ $ $ $ $ $ $ $ $ $ $ % & & & & & & % = : : : : : : > : > : : : > 1 1 1 1 1 1 3 2 f f h f g     ",
"@.                r 7 j M M n b j ; ; : : : $ @ # @ @ @ # @ # @ # $ $ $ $ $ $ $ $ $ $ $ $ $ & & & & & & & = : : : : : : : : > : : : : , , < 1 1 1 3 2 f f h f f     ",
"@.                V g k m m f 7 7 : : : > : # O + + + + + + + O @ # # $ $ $ $ $ $ $ $ $ $ $ & & & & & & % = > : : : : : : : : : : : : : ; , 1 1 1 1 2 f g h f f     ",
"@.                B f f f f < : > : : : : : $ O @ + + + + + + + + + + # $ $ $ $ $ $ $ $ $ $ & & & & & * & = : : : : > : : : : : : : : : : , 1 1 1 1 2 f f h f f     ",
"$.            ` } g f f f f < ; : : : : : : $ O + + + + + + + + + + + # $ $ $ $ $ $ $ $ $ $ & & & & & & % = : : : > : : : > : : : > : > : , 1 1 1 1 2 f f z z f     ",
"+.          4.q f f f g g f < : > : : : : : $ O @ + + + + + + + + + + # $ # $ $ $ $ $ $ $ $ & & & & & & & = : : : : : : : : : : : : : : : > 1 1 1 < 2 f g f f f     ",
"%.          5.q Z f f f f f < ; : : : : : : $ O + + + + + + + + + + + # $ $ $ $ $ $ $ $ $ % & & & & & & & * : : : : : : : > : : : : : > : , 1 1 1 < 2 f f A ` )     ",
"            1.q B f f f f g < ; > : : : : : @ . o o o O @ + + + + + + # $ $ $ $ $ $ $ $ $ $ & & & & & & & = : : : : : > : : : : : : : : : , 1 1 1 1 2 B f 7.        ",
"            <.f B f f f f f < : : : : : : : @ . o o X o O O + + + + + @ @ @ $ $ $ $ $ $ $ $ & & & & & & & = > : : > : : : : : : : : : : : , 1 1 1 1 2 h f { 0.6.    ",
"o.          <.q B f f g g f 1 ; > : : : : : @ . o o o o X X O + + + + + + + $ $ $ $ $ $ $ % & & & & & & & = : : : : : : : : : > : : : > : , 1 1 1 < 2 f h f q f     ",
"#.          <.f B f f f f f < ; > : : : : : # . o X o o X o + + + + + + + @ $ $ $ $ $ $ $ $ & & & & & & % = : : : : : : : : : : > : : : : > 1 1 1 1 2 f f h f f     ",
"            1.f C f g 0 2 2 , : : : : : : : @ . o o o X o X + + + + + + + + $ $ $ $ $ $ $ $ & & & & & * & * > : : : : : > : : : : : : : : , 1 1 0 q q B f 4.        ",
"            5.q C f g 7 < < > : : : : : > : @ . o o o X o o O + + + + + + + $ $ $ $ $ $ $ $ & & & & & & & = : > : : : : : : > : : : : : : , 1 1 j n b C f           ",
"            5.f C f g 0 1 1 > : > : : : ; ; @ . o o o o o o + + + + + + + + $ $ $ $ $ $ # % & & & & & & % = : : : > : : : : : : : : > : : , 1 < n M m B q           ",
"            5.q C f f 0 < 1 > : : : > * . O o o X o o X X o + + + + + + + @ $ $ $ $ $ $ # $ & & & & & & & * : : : : : > > : : : : : : : : > 1 < b M m S f           ",
"            5.f C f g 0 1 1 , : : : > & . o X X o o X o o o + + + + + + + + # $ $ $ $ $ $ % & & & & & & & = : : : : : : : : : : : : : > : 1 0 0 n M m f q 7.        ",
"            } f c f g 0 < 1 > : : : > * . o o o X o o o X o + + + + + + + + $ $ $ $ $ $ $ $ & & & & & * & * > : : > : : : : : : : : : : - 6 b k m M F 7.<.          ",
"        f f f h f f f 0 1 1 , : : : : & . o X o o o X o X o + + + + + + + + $ $ $ $ $ $ $ $ & & & & & & & * > : : : : : : : > : : : : , ; q M M N M [               ",
"        f B h f f g g 0 < 1 > : > : > * . O o o o X X X X X + + + + + + + @ $ $ $ $ $ $ $ $ & & & & & & % = > : : : : : : : : : > : , n m m M M b g ]               ",
"        f c f f f 7 7 6 1 1 > : : : > & . . X o o X X O O O + + + + + + + + # $ $ $ $ $ $ $ & & & & & & & = : : : : : > : : : : > ; < M M M M M x 2 Y               ",
"        f c f g q 1 < 1 1 1 > : > : > * @ # O X o o o + + + + + + + + + + @ $ $ $ $ $ $ $ % & & & & & * & * > : : : : > : : : : : ; , m M M m m w > P               ",
"        q z f f f 1 1 3 1 1 > : : : : : : : @ . O + + + + + + + + + + + + + # $ $ $ $ & & & & & & & & & & = : : : : : : : : : : : : < m M b f f 8 < I               ",
"        f c g f f 1 1 1 1 1 > : > : : : : : # o + + + + + + + + + + + # # # $ $ $ $ $ % & & & & & & & & & * > : : : : : : : > : 2 0 0 M M k 2 6 2 < 4 R G           ",
"        f c h f q 1 1 1 1 1 > : : : : : : : $ O + + + + + + + + + + + # $ $ $ $ $ $ $ & & & & & & & & & & * : : > : : : : : : - f b b n m g < < 1 1 i ;.&.          ",
"        f z f g f 4 4 3 1 1 > > > : : : : : # O @ + + + + + + + + + + # $ $ $ $ $ $ $ % * & & & & & & & & = : : : : : : : : , ; k M M f f 0 1 1 3 < U               ",
"        f c f f f < , < 1 1 1 1 < : : : : : $ O + + + + + + + O @ $ # $ $ $ $ $ $ $ # & & & & & & & & ; : : : : : : : > : < q 0 b M m g f 0 < 1 3 < I               ",
"        f z h f Z     *.< 3 1 1 < : : : : : % @ # # # # # # # # # $ $ $ $ $ $ $ % % % & & & & & & & & : : : : > : > : > - 6 m n M M M g g 0 < 1 3 < I               ",
"        f z h f )       < 5 < < < : : : : : & # $ $ $ $ $ $ $ $ $ $ $ $ $ $ $ # % & & & & & & & & & & ; : : : : : : : > - 0 M M m m m q q 7 1 1 4 < U               ",
"        f C z f D       < 4 > : : : : : : : % # $ # # $ $ $ $ $ $ $ $ $ $ $ $ $ % & & & & & & & & & & ; > : : : : > : : = 7 M M k q q 1 1 1 1 1 1 < K               ",
"        q f f f D       < 4 > : : : > : : : : - , 7 0 > + $ $ $ $ $ $ $ $ $ $ $ % & & & & & & & = : ; : : > > > : = ; k n m M M b f f 1 1 3 t 1                     ",
"        0.  { f )       < 4 , , , : : : : : > ; 2 b n 2 . % $ $ $ $ $ $ $ $ % % % & & & & & & % - > : : : : ; = 6 f f M M M b n f 7 0 1 1 < < ,                     ",
"            7.q `       < 5 1 1 < > > > : : > ; 7 M M 7 . % # $ $ $ $ $ $ $ & & & & & & & & * & - : : : : > 1 > k M M m M b q f 6 , 1 1 1 i I G                     ",
"            >.q x       < t < 1 1 < 1 , : > : = 2 M M 7 . & # $ $ $ $ % & & & & & & & & & * : : : : : > - 6 M M M M M j g g g g 7 < 1 u < 2.                        ",
"                        > < 1 1 1 1 1 , ; : 6 7 f M M 7 . & % % % % % & & & & & & & * & % * : : : : : > ; 1 b b k b j 6 < 2 7 6 2 1 1 < > :.                        ",
"                        ( &.s < 3 1 1 < > , q g k M M q - > & & & & & & & & & & & & & * = = : : : : : : : , 7 7 7 7 6 > ; > < < 1 1 3 / Q                           ",
"                            / < t 1 1 1 1 1 q q j M M b g f - % * & & * & & & & & & & ; > > : > : : : : : : : ; : : : > : , 1 1 3 < i                 f f 5.        ",
"                            ~ < u 1 1 1 1 1 < > 0 M M M m n , ; : ; : * % & ; : ; : ; : : : : : : : : : > : : > : : : < < < 1 1 4 1 a                               ",
"                            R , 1 1 1 1 1 1 : = 1 b b m M M < ; : : > ; - - : > > : : : > : : : > : : : : : : : , , , 1 1 1 1 1 1 , 2                               ",
"                            *.P U 1 1 1 1 1 , : 1 f q b M m 1 , , : : : : : : : : : : : : : : : : : > : : : > : < 1 1 1 1 1 1 < P T W                               ",
"                                  5 t 5 1 1 1 < 6 g f b M M g f 7 : : > : : : : : : : : : : : : : : : : : > 1 1 < 1 1 1 1 1 5 <                                     ",
"                                  , , < 1 1 1 1 2 6 1 b M M m n k 6 7 < : > : : : > : : : : : : : : : , < < 1 1 1 1 1 1 1 1 5 <                                     ",
"                                  *.-.U < 3 1 1 < 1 , g m n M M M k b 6 - > : : : : : > , > , , , > , 1 1 1 1 1 1 1 1 1 1 1 < <                                     ",
"                                      9.< t 3 5 3 1 1 0 f f m M M M M q - > : : : > : < 1 1 1 1 1 1 1 1 1 1 1 1 1 1 1 3 4 5 s <                                     ",
"                                      2.> < < , < t t 3 1 2 g g k M M j 0 0 : - > 1 1 1 1 1 1 1 1 1 1 1 1 3 5 t 5 t t < , R                                         ",
"                                                2., < < 3 1 6 6 g M M m n b 7 7 2 < < 1 1 1 1 1 1 1 1 1 3 < < < < , < 8.                                            ",
"                                                  U ~ G 1 3 1 , q m m m M m g g q 2 6 1 1 1 1 1 1 1 1 3 1 p E E Q E W                                               ",
"                                                      -., 1 3 5 8 f f f f f f f f f f 6 < 1 1 < 1 1 1 < , R                                                         ",
"                                                            2 > 6 v x z z z f f f f f q q q q q 8 < <                                                               ",
"                                                            8.;.^ 0 0 q f f f f g f f f f f g g q 6 7                                                               ",
"                                                                  1 H L ) D B B x f f f f f f f f g f f q q f f f f f f q ..                                        ",
"                                                                            f q f B c c c c B c B c B A S A A A A A A f q ..                                        ",
"                                                                                1.f f f f f f q f q f q f f f q f q f                                               ",
"                                                                                  | >.>.X.>.1.<.<.<.<.<.<.>. .>.>. .>.                                              ",
"                                                                                                                                                                    "
};
