/* XPM */
static char *f879d638654645f8f16985f79483e0cf70T97DwYZxnWLyzj[] = {
/* columns rows colors chars-per-pixel */
"82 82 157 2 ",
"   c None",
".  c #020000",
"X  c #0A0000",
"o  c #170000",
"O  c #1B0000",
"+  c #260000",
"@  c #290000",
"#  c #340000",
"$  c #3D0000",
"%  c #430000",
"&  c #4D0000",
"*  c #530000",
"=  c #5A0000",
"-  c #640000",
";  c #6C0000",
":  c #750000",
">  c #7B0000",
",  c #840000",
"<  c #8C0000",
"1  c #8F0D0D",
"2  c #920000",
"3  c #9B0000",
"4  c #920C0C",
"5  c #9A0B0B",
"6  c #8F1010",
"7  c #921313",
"8  c #931C1C",
"9  c #A40000",
"0  c #AC0000",
"q  c #AC0808",
"w  c #B30000",
"e  c #BD0000",
"r  c #B80E0E",
"t  c #A51212",
"y  c #B11111",
"u  c #BD1616",
"i  c #B41818",
"p  c #942424",
"a  c #992525",
"s  c #942A2A",
"d  c #963333",
"f  c #9C3333",
"g  c #973A3A",
"h  c #993C3C",
"j  c #C30000",
"k  c #CA0000",
"l  c #C40B0B",
"z  c #D40000",
"x  c #DD0000",
"c  c #DA0909",
"v  c #C41313",
"b  c #C51D1D",
"n  c #C81C1C",
"m  c #DD1313",
"M  c #E40000",
"N  c #EB0000",
"B  c #F40000",
"V  c #FE0000",
"C  c #FD1414",
"Z  c #C52323",
"A  c #C92323",
"S  c #C52B2B",
"D  c #CC2B2B",
"F  c #C63434",
"G  c #C83434",
"H  c #C73B3B",
"J  c #C93C3C",
"K  c #FA3030",
"L  c #9D4343",
"P  c #954A4A",
"I  c #9F4E4E",
"U  c #A04040",
"Y  c #A14D4D",
"T  c #BA4444",
"R  c #A25555",
"E  c #A55B5B",
"W  c #A95C5C",
"Q  c #B75959",
"!  c #A66363",
"~  c #AA6464",
"^  c #A76969",
"/  c #A96A6A",
"(  c #AB6D6D",
")  c #AB6E6E",
"_  c #AF6C6C",
"`  c #AC6C6C",
"'  c #AB7171",
"]  c #AF7272",
"[  c #AC7070",
"{  c #AB7474",
"}  c #AB7878",
"|  c #B27777",
" . c #B27777",
".. c #B87676",
"X. c #B37B7B",
"o. c #B07B7B",
"O. c #B57C7C",
"+. c #C74040",
"@. c #CC4444",
"#. c #CA4444",
"$. c #CB4A4A",
"%. c #CB5454",
"&. c #CD5959",
"*. c #D85B5B",
"=. c #FC5D5D",
"-. c #CD6363",
";. c #CF6F6F",
":. c #CE6D6D",
">. c #D06F6F",
",. c #CD7070",
"<. c #CF7E7E",
"1. c #D17575",
"2. c #D17373",
"3. c #D17F7F",
"4. c #D47C7C",
"5. c #913DCE",
"6. c #9750D0",
"7. c #9B5ED1",
"8. c #9E64D2",
"9. c #AA7BD8",
"0. c #B78C8C",
"q. c #B68B8B",
"w. c #B98989",
"e. c #BC8C8C",
"r. c #BC8B8B",
"t. c #B59090",
"y. c #BB9292",
"u. c #BC9292",
"i. c #BD9595",
"p. c #BF9595",
"a. c #BB9494",
"s. c #BC9B9B",
"d. c #BE9999",
"f. c #C08D8D",
"g. c #D08181",
"h. c #D18383",
"j. c #D28484",
"k. c #D68484",
"l. c #D88383",
"z. c #D58989",
"x. c #D58A8A",
"c. c #D58B8B",
"v. c #DB8B8B",
"b. c #DA8A8A",
"n. c #C39494",
"m. c #C49F9F",
"M. c #C19C9C",
"N. c #D79393",
"B. c #D89494",
"V. c #D99494",
"C. c #D59C9C",
"Z. c #DB9B9B",
"A. c #C6A1A1",
"S. c #C5A1A1",
"D. c #DFA0A0",
"F. c #BD9DDF",
"G. c #C0A8DC",
/* pixels */
"                                                                                                                                                                    ",
"                                              3.<.g.3.<.g.z.z.z.z.z.z.z.j.<.g.g.,.                                                                                  ",
"                                              j j j j j j e e j j e e e j j j j e v.                                                                                ",
"                                        1.e j F F F F F F H F Z Z Z Z Z Z Z Z b Z j e j                                                                             ",
"                                        ;.e j j j j j j e e e j j j j j j j j j j v S S +.@.T P 2                                                                   ",
"                                                              0 9 r k j j j j j j j j j j j e 0 0 ..s.S.                                                            ",
"                                                              < , t e e e e e j j j j j b b b b A 9 > 2                                                             ",
"                                                        ! , < 2 2 2 < < 2 < 3 j j j j j j j j j j t p 7 2 , u.                                                      ",
"                                              _ / ) ) ) d 2 7 2 2 2 2 2 2 2 2 3 3 e k k B V B B B w , < 7 2 L [ E                                                   ",
"                                            m.< , < < < 2 7 2 2 2 2 2 2 2 2 2 < < 3 9 0 M N B V V k 9 9 2 7 < < , i.                                                ",
"                                        / > < p p p p p 4 2 2 2 2 2 2 2 2 2 2 2 2 > ; : w w z V V x k k 3 2 7 p s < < < < > i.                                      ",
"                                    < h p 7 7 2 2 2 2 2 2 2 2 2 2 2 2 2 2 2 < : : : : : , - w V V V V B j j 0 < 2 7 8 7 s < S.                                      ",
"                                    , 2 2 2 2 2 2 2 2 2 2 2 < , > , , , , , > : : : : : > - 9 M x B V V N B k , < < 2 2 4 < E y.0.                                  ",
"                                    < p 2 2 2 2 2 2 2 2 < < , : : : : : : : : : : : : : : : < 0 9 z B B V V x 2 9 2 2 2 2 4 < , ,                                   ",
"                                    , 8 2 2 2 2 2 2 2 2 > : : : : : : : : : : : : : : : : : : : : 0 j k V V M j k 3 < 2 2 2 8 s 8                                   ",
"                              _ ! R < 2 2 2 2 2 2 < : > : : : : : : : : : : : : : : : : : : : : : , > 2 B V M e j < : , 2 2 2 2 2 ! R e.                            ",
"                              2 , < 2 2 2 2 2 , , > : : : : : : : : : : : : : : : : : : - - ; > : : ; < V V B M M 2 - : 2 2 2 2 2 < , ~                             ",
"                              f < 8 2 2 < < < : : : : : : : : : : : : : : : : ; ; ; : ; & % = : : : ; , N B V V V 0 > < 2 2 2 2 2 s < [                             ",
"        B.e j                 f < 4 2 2 , : > : : : : : : : : : : : : : : > ; & & & & & & & & & & * % - j j x V V z e e 2 2 2 2 2 s ,  .                            ",
"                          ' o.7 2 2 < < > ; : 9 0 0 0 0 , : : : : : : : = = = & & & & & & & & & & & & * > - e V V z k e > > , 2 2 7 < h w.o.                        ",
"                        f.> < 2 < 3 9 9 3 < 3 z x x M M 2 ; : : : : : : * % & & & & & & & & & & & & & % & . 0 V V j 0 9 : : , 2 2 2 4 < < >                         ",
"                        n., s 2 < 9 k j k k z V V V V V 9 ; > : : : : : = & & & & & & & & & % $ $ $ $ $ & . 0 V V 3 = : : : , 2 < < 2 4 s <       n e 3.            ",
"                    L R d 2 2 < , 9 j e M V V V V z > 2 > : : : : - * = & & & & & & & & % $ $ $ $ $ $ $ & . 0 V V 9 ; > : : : > > < 2 2 8 <       %.e Z.            ",
"                    , < < 4 2 0 0 j N M V V V j j 9 = ; : : : : > - % & & & & & & & % % $ $ $ $ $ $ $ $ % . 3 N M 3 ; > : : : : : , , , 8 <       +.j -.  Z.        ",
"                    2 s 7 < 2 j j x V V B N z ; = : > > : : : ; : = & & & & & & & % $ $ $ $ $ $ $ $ $ $ % + > w 0 , - ; : : : : : : : > 8 <       J j j e e         ",
"              Y < 2 2 2 2 < 2 e e z V V 0 = : > > : : : : : ; & & & & & & & & & & % $ $ $ $ $ $ $ $ $ $ $ $ $ $ $ $ # & : : : : : : : > 8 <       J j b S j         ",
"              E < 8 2 < 0 e e N B B V V 0 - > : : : : : : : ; & & & & & & & & & & % $ $ $ $ $ $ $ $ $ $ $ $ $ $ $ % $ & : : : : : , < < 8 ,       #.j v b j         ",
"              E < 7 2 < w k k V V V N N 9 ; > : : : : : : > ; & & & & & & & & % % % $ $ $ $ $ $ $ $ # # # # # # # # # % : : : : : < 2 2 7 < r.    F j v b j         ",
"              E < 7 2 < w j j B V N w e < ; : : : : : : : : ; & & & & & & & & $ $ $ $ $ $ $ $ $ $ @ + @ @ + @ @ @ @ + $ : : : : : < < < 2 4 < , < e j j b j         ",
"              E < 7 2 < 0 j j V V x ; , : : : : : : : : = & * & & & & & & & & $ $ $ $ $ $ $ # @ @ @ @ @ @ @ @ @ @ @ + $ : : : : : > : > 2 2 7 8 8 e j j b j         ",
"          q.i.d < 2 < , k N N x M j - : : : : : : : : : = & & & & & & & & & & $ $ $ $ $ $ $ $ + @ @ @ @ @ @ @ @ @ @ + $ : : : : : : : > 2 2 2 4 4 e j l b j         ",
"          L ! 8 < 2 9 2 M V V w 0 3 : : : : : : : : : : = & & & & & & & & & & $ $ $ $ $ $ $ # @ @ @ @ @ @ @ @ @ @ @ O $ : : : : : : : > 2 2 2 2 2 e j l b j         ",
"              E < t j j M V B , : > : : : : : : : : : : = & & & & & & & & & & $ $ $ $ $ @ @ @ @ @ @ @ @ @ @ @ @ @ O . # : : : : : : : > 2 2 2 2 2 e j l b j         ",
"              R > y B B V V B , ; : : : : : : : : : : : = & & & & & & & % % % $ $ $ $ $ @ @ @ @ @ @ @ @ @ @ + o O o o O # @ = > : : : > 2 2 < < < e j l b j         ",
"              Q 3 v V V V V V , : > : : : : : : : : : : = & & & & & & & $ $ $ $ $ $ $ $ @ @ @ @ @ @ @ @ + + O o o o o o X . & > : : : > 2 < 9 0 0 j j l Z j         ",
"              *.k m V V B B N , : : : : : : : : : : : : = & & & & & & & % $ $ $ $ $ $ $ @ @ @ @ @ @ @ + o o o o o o o o O . * > : : : > 2 < w k j j j v S j         ",
"              =.V C V V e ; , : : : : : : : : : : : : : = & & & & & & & % $ $ $ $ $ $ $ @ @ @ @ @ @ @ + o o o o o o o o o . * > : : : > 2 < 0 j j j l j j j         ",
"          z.B.K V B z x 9 - : : : : : : : : : : : : : : = & & & & & & & % $ $ $ $ $ $ $ @ @ @ @ @ @ @ + o o o o o o o o O . * > : : : > 2 < w j j b j ;.            ",
"        Z.e j B V N 0 w 2 : > : : : : : : : : : : : : : = & & & & & & & % $ $ $ $ $ $ $ @ @ @ @ @ @ @ + o o o o o o o o o . * > : : : > 2 < w j j S e N.            ",
"          j H B V M < 2 , : : : : : : : : : : : : : : : = & & & & & & & % $ $ $ $ $ $ $ @ @ @ @ @ @ @ + o o o o o o o o O . * > : : : > 2 < 0 j j S e V.            ",
"          e S B V N < 2 , : : : : : : : : : : : : : : : = & & & & & & & % $ $ $ $ $ $ $ @ @ @ @ @ @ @ + o o o o o o X @ ; ; : : : : : > 2 2 w j j S e V.            ",
"          e S x N z < 2 , : : : : : : : : : : : : : : : = & & & & & & & % $ $ $ $ $ $ $ @ @ @ @ @ @ @ + o o o o o o . # : > : : : : : > < < 0 j j S e B.            ",
"        V.j Z w e 0 < 2 , : : : : : : : : : : : : : : : = & & & & & & & % $ $ $ $ $ $ $ @ @ @ @ @ @ @ + o o o o o o X # : : : : : : : > 3 3 w j j S e c.            ",
"    j j v j j 3 2 2 2 2 , : : : : : : : : : : : : : : : = & & & & & & & % $ $ $ $ $ $ $ @ @ @ @ @ @ @ + o o o o o o . # : : : : : : ; < j j j j j S j z.          8.",
"    j e j v j 3 < 2 2 2 , : : : : : : : : : : : : : : : = & & & & & & & % $ $ $ $ $ $ $ @ + @ @ @ @ @ + o o o o o o X # : : : : : : ; < j j j j j S j z.          5.",
"    C.C.-.j v 3 < 2 2 2 , : : : : : : : : : : : : : : : = & & & & & & & % $ $ $ $ $ $ $ # # @ @ @ @ @ @ O + o o o o . # : : : : : > ; < j j j j j S j z.          G.",
"        Z.j S 3 < 2 2 2 , : : : : : : : : : : : : : : : = & & & & & & & % $ $ $ $ $ $ $ $ $ $ + @ @ @ @ @ @ + o o o X # : : : : : : ; < j j j j j S e c.            ",
"    @.%.G j l 3 < 2 2 2 , : : : : : : : : : : : : : : : = & & & & & & & % $ $ $ $ $ $ $ $ $ # + @ @ @ @ @ @ @ + + @ + $ : : : : : : ; < j j j j j F e B.          9.",
"    j j j l j 3 < 2 2 2 , : : : : : : : : : : : : : : : = & & & & & & & % $ $ $ $ $ $ $ $ $ # @ @ @ @ @ @ @ @ @ @ @ + $ : : : : : > ; < j j j j j j e c.          6.",
"    j b b j j 3 < 2 2 2 , : : : : : : : : : : : : : : : = & & & & & & & % $ $ $ $ $ $ $ $ $ # + @ @ @ @ @ @ @ @ @ @ + $ : : : : : : ; < j j j j j :.%.            8.",
"    j j v j j 3 < 2 2 2 , : : : : : : : : : : : : : : : = & & & & & & & % $ $ $ $ $ $ $ $ $ # + @ @ @ @ @ @ @ @ @ @ + $ : : : : : > : < j j l j Z                 7.",
"    j j v j j 3 < 2 2 2 > ; : : : : : : : : : : : : : : = & & & & & & & % $ $ $ $ $ $ $ $ $ $ $ $ @ + + + + + + + @ O $ : : : : : 0 0 j B B c j D                 7.",
"    j j v j j 5 1 4 2 2 < , , : : : : : : : : : : : : : = & & & & & & & $ $ $ $ $ $ $ $ $ $ $ $ $ # # # # # # # # # @ % : : : ; ; z M N V V z 9 i                 7.",
"    j j l j j 5 6 4 2 2 2 2 2 > : : : : : : : : : : : : = & & & & & & & % $ $ $ $ $ $ $ $ $ $ $ $ $ $ $ $ $ $ $ $ $ $ & : : > , , B V V V V j , 2 p < q.          7.",
"    v S Z j j 2 , < 2 2 2 2 < > : : ; ; > > > > > > : : = & & & & & & & & & & $ $ $ $ $ $ $ $ $ $ $ $ $ $ $ $ $ $ $ # % > ; j V B V V B k k q < a                 8.",
"    e e j l j     m.< 2 2 2 < > ; < 0 0 > = - - = ; : : = & & & & & & & & & & $ $ $ $ $ $ $ $ $ $ $ $ $ $ $ $ $ $ = - - - % j V V k j e 9 9 5 < p                 5.",
"    l.z.&.j l       < 7 4 2 < > ; 3 k k w 9 0 9 0 2 ; : = & & & & & & & & & & $ $ $ $ $ $ $ $ $ $ $ $ $ $ $ $ $ $ ; > , 0 9 z V V 3 > , < < 4 < p                 F.",
"          e S       < < 2 2 < > ; 2 j e N V V V V k = > = & & & & & & & & & & $ $ $ $ $ $ $ $ $ $ $ $ $ $ $ $ $ $ : ; 2 V V V V V 0 < 2 2 2 2 < 2                   ",
"          e S           O.< p > - 3 k j k k z V V z - > : : ; & & & & & & & & & & % $ $ $ $ $ $ $ $ $ $ $ $ $ # # = * < B V z 9 0 2 2 2 7 < M.                      ",
"        Z.e Z           n., s , > 2 9 9 e e k V V k & ; : > ; & & & & & & & & & & & % % $ $ $ $ $ $ $ $ $ $ & = * w k z V V k > < < 2 2 8 ,                         ",
"        Z.j Z           n., s 2 2 , ; - 0 j k V V z , 3 > : ; & & & & & & & & & & & & & % $ % $ % $ $ $ $ # = > ; M V V B B j < 2 2 2 4 d <                         ",
"        Z.j Z           n., s 2 2 < : : w k k V V V V V 3 ; : & & & & & & & & & & & & & & & & & & % $ $ % # = > : w k e > > < 2 2 2 4 < , >                         ",
"        Z.j S           n., s 2 2 , : : < < 9 V V V V V 9 ; : ; ; = % & & & & & & & & & & & & & & & & % $ # % * & , 2 < , , < 2 2 s < ~                             ",
"        D.e l           e., p 2 2 < > > : - , N B B V V 3 - : : > ; = = & & & & & & & & & & & & & & & & * * * & & : > > 2 2 2 2 2 4 , _                             ",
"          j +.          e.< g 2 2 2 2 2 , : , e e z V V 9 : > : : : : : = & & & & & & & & & & & & & & = : > : > : < 2 2 2 2 2 2 2 h 2  .                            ",
"                        O.: , 4 8 4 2 2 > ; > 3 2 k V V k w 0 > : : : : * % & & & & & & & % = : : : : : : : : : : < 2 2 2 2 4 2 <                                   ",
"                              2 < < 2 2 < , , 2 , w M M M N z ; - : : : ; - = & & = - - - - ; : : : : : : : > , , < 2 2 2 2 7 2 2                                   ",
"                              / E I < 2 2 2 2 2 < 0 j e B V N 2 2 , : : : > ; = * ; > : : : : : : > > > > : , 2 2 2 2 2 2 2 2 2 <                                   ",
"                                    < d 4 2 2 2 < 0 k j B V V V V j - > > > > : : : : : : : : : : < 2 2 2 2 2 2 2 2 2 4 s s 7 < <                                   ",
"                                    > < < 4 2 2 < 3 9 3 k z x V V z 9 0 ; = - : : : : : : : : : : < 2 2 2 2 2 2 2 2 4 < < > X.                                      ",
"                                    0.d.I < 4 2 2 < < < w e k N N M M M e e 0 : : : : : > , , , , < 2 2 2 2 2 2 2 4 < f a.t.                                        ",
"                                        w.< s 2 2 2 2 2 e j j e e x V V V V M : : > : > < 2 2 2 2 2 2 2 2 2 2 2 2 p < W                           G e z.            ",
"                                        O.> < p p 7 2 2 2 2 2 2 2 w z k V V M , < < < < 2 2 2 2 2 2 2 2 p p p p s < > U                     c.j j j e c.            ",
"                                            S.< , < 8 4 2 < < 2 < 3 0 9 z M z w w w w 0 2 < < 2 2 2 2 < < < < < , m.    Z.Z.                                        ",
"                                              [ } R < 7 2 2 2 2 2 < < < w e j k j j k j 9 3 3 2 2 2 < p ) } } } ^       j e v.                                      ",
"                                                    , 2 2 p 8 8 8 8 8 8 Z A b j j j j j j k w < 2 7 < L           >.e j F J v j j                                   ",
"                                                        E , < , , , , , e j j Z b l j j j j j e e e e u 2.l.4.4.4.J l l j e g.                                      ",
"                                                          y.M.s.s.s.s.s.C.  z.j j j v l l l l l l l l j j e e e e j j v B.N.                                        ",
"                                                                              @.&.H v b b b b b b b b b Z S S S Z %.$.4.                                            ",
"                                                                                  l.e j j e e e e e e e j j j j e                                                   ",
"                                                                                                                                                                    ",
"                                                                                                                                                                    "
};
