/* XPM */
static char *exit41694357825[] = {
/* columns rows colors chars-per-pixel */
"82 82 123 2 ",
"   c None",
".  c #010000",
"X  c #0E0000",
"o  c #110000",
"O  c #1C0000",
"+  c #240000",
"@  c #2C0000",
"#  c #340000",
"$  c #3B0000",
"%  c #450000",
"&  c #4C0000",
"*  c #520000",
"=  c #5A0000",
"-  c #640000",
";  c #6C0000",
":  c #750000",
">  c #7A0000",
",  c #830000",
"<  c #8C0000",
"1  c #920000",
"2  c #9A0000",
"3  c #930B0B",
"4  c #931313",
"5  c #941B1B",
"6  c #A40000",
"7  c #AC0000",
"8  c #A60B0B",
"9  c #A80808",
"0  c #B30000",
"q  c #BD0000",
"w  c #B30808",
"e  c #BE0F0E",
"r  c #B61111",
"t  c #952323",
"y  c #992121",
"u  c #962A2A",
"i  c #9A2C2C",
"p  c #973131",
"a  c #9A3333",
"s  c #9B3B3B",
"d  c #A23F3F",
"f  c #C30000",
"g  c #CA0000",
"h  c #C50B0A",
"j  c #D40000",
"k  c #DC0000",
"l  c #DE0B0B",
"z  c #C61515",
"x  c #C91515",
"c  c #C51B1B",
"v  c #CA1E1E",
"b  c #E30000",
"n  c #EB0000",
"m  c #F40000",
"M  c #FE0000",
"N  c #FD0C0C",
"B  c #C62323",
"V  c #CD2727",
"C  c #C72A2A",
"Z  c #C92E2E",
"A  c #C73131",
"S  c #C93636",
"D  c #C93C3C",
"F  c #FA2C2C",
"G  c #9D4343",
"H  c #964949",
"J  c #A04444",
"K  c #A14C4C",
"L  c #BB4242",
"P  c #A45454",
"I  c #A75B5B",
"U  c #A95D5D",
"Y  c #B85959",
"T  c #A76262",
"R  c #AB6464",
"E  c #AC6B6B",
"W  c #B06D6D",
"Q  c #AD7373",
"!  c #AD7979",
"~  c #B17373",
"^  c #BA7777",
"/  c #B57B7B",
"(  c #B87E7E",
")  c #CC4343",
"_  c #CC4949",
"`  c #CC5454",
"'  c #CE5959",
"]  c #D95B5B",
"[  c #FC5D5D",
"{  c #CE6363",
"}  c #CF6D6D",
"|  c #CE7171",
" . c #CF7F7F",
".. c #D17373",
"X. c #D37E7E",
"o. c #9137CF",
"O. c #923DCF",
"+. c #984FD1",
"@. c #9C5ED2",
"#. c #9D61D2",
"$. c #A165D4",
"%. c #AC7CD9",
"&. c #B78989",
"*. c #BB8C8C",
"=. c #B69191",
"-. c #BC9494",
";. c #BD9A9A",
":. c #C18E8E",
">. c #D38282",
",. c #D98585",
"<. c #D68A8A",
"1. c #DA8D8D",
"2. c #C39595",
"3. c #C19B9B",
"4. c #D79292",
"5. c #DA9595",
"6. c #D59999",
"7. c #DB9C9C",
"8. c #C5A1A1",
"9. c #C8A4A4",
"0. c #D6A0A0",
"q. c #E0A1A1",
"w. c #BE9EE0",
/* pixels */
"                                                                                                                                                                    ",
"                                                                                                                                                                    ",
"                                                  >.f z f g f g f f )   6.f f                                                                                       ",
"                                                  <.q C f f f f z f `   0.f f                                                                                       ",
"                                    q.7.7.7.7.    ' f v h h h h x f S 7.{ f h 4.      7.                                      5.                                    ",
"                                  f q f f q f f f f g f f f f f f f f q f h f f q f f q <.          s &.                      q                                     ",
"                                  D f C c B B B B h f f f f f f f f f B h f f B C B S f 5.          R ;.                      f                                     ",
"                                                      1 2 2 2 2 2 2 2 2 2 2 2 q k M m m F [ ] Y P I 4 i T I I U K                                                   ",
"                                                      , 3 1 1 1 1 1 1 < 1 < 1 q n M M M M M g 2 > < 1 < < < < < <                                                   ",
"                                                    8.< 1 1 1 1 1 1 1 1 1 1 1 0 j b n n m N l h w 8 1 1 3 3 3 4 1                                                   ",
"                                                < < < 1 1 1 1 1 1 1 1 1 1 1 1 1 1 < < 7 k M M M M f 6 1 1 1 1 1 1 1 , J                                             ",
"                                                1 3 1 1 1 1 1 1 1 1 1 1 1 1 1 1 1 1 1 0 b M M M m f 1 < 1 1 < < 1 t < P                                             ",
"                                / -.*.2.2.2.2./ 1 1 1 1 1 < > > , , , , , > > , , , , 1 6 q m M M b b g 0 0 0 7 1 3 1 u 2.:.                                        ",
"                                : < < , < , , < 1 1 1 1 1 , : : : : : : : : : : : : : : = : m M M M M n f f g q 1 < 1 1 < > Q                                       ",
"                                , s t t t t u 5 1 1 < 1 1 , : : : > : : : > : > : : : > : , n M m m M n f g g q 1 1 1 1 u 1 /                                       ",
"                            E 1 1 1 1 1 1 1 , > > > > > > : : > : : : : : : : : : : : : : : , < , , q k m M M n f f 0 1 1 1 3 i a 2 W                               ",
"                            I < 4 < 1 1 1 2 > ; ; ; ; : : : : : : : : > : : : : : : : : : : ; : : : 7 b M M M m q f 7 < < < 1 < 1 , T                               ",
"                            K < 1 1 < , < < 1 2 2 2 < : : : : : : : : : > : : : : : : > : : > > : > 2 f k n M m k k f 6 7 2 1 3 4 < P                               ",
"                      *.> < 1 1 1 1 , : : ; 6 g g g 7 ; : > : : : : : : : : > : : > : : : : : : : : : - ; 0 n M M M n f g 7 < 1 1 1 < < < , 1                       ",
"                      ;.< p 1 1 1 1 > : : - 6 g q g 7 : : : : : : > : : : : : : : : : : : : : > : : > : , f n M M M b q g 6 1 1 1 1 1 4 5 1 s                       ",
"                  ( *.K 1 3 1 < > , : < 0 0 q g m 0 > > : : : : : : : : : : : : : : : : : : : : : : : : : 1 6 7 7 m M b g 2 > , < 1 1 1 1 1 5 E           ....      ",
"                  > < 1 3 1 1 , : : - 1 g f q j M 6 = > : > : : : : > : > : : : : : : > : : : : : : > : : ; ; - = n M m g < ; : 1 1 1 1 1 1 3 >           q q       ",
"                9.< t 3 1 1 1 , : , , 6 g g g k M 7 - > : : : : : : : : : : : : : : : : : > : : > : : : : > : > : k M M j 2 : > < < 1 1 1 1 3 < 8.        f f       ",
"              ~ < 5 1 1 1 1 1 1 2 q b M M M m M M 7 - > : : : : : : : : : : : > : : : : : : : : : : : : > : : : > ; f M M k 6 : > , 1 1 1 1 1 t < W       f A f X.  ",
"              ! , t 1 1 < < 1 < 1 q m M M M M M M 7 - > : : : > : > : : : : : > : : : : : : > : : : : : > : : : > = f M M k 0 : : , 1 1 1 1 1 t , E       f A f >.  ",
"              P 1 3 1 < 2 7 7 0 g k m M M j g j j 1 ; > : : : : : : : : : : : : > : : : : > : : : : > : : : : : : : 6 k M k 7 ; > > < 1 1 1 1 t < E       q A f >.  ",
"            , < 4 1 1 1 6 g f b M M M M M , & - = : : : : : : : : : : : : : : : : : : : : : : : : : : : : : : : : > = , M b 7 : : : > 1 1 1 1 5 < E       f A q >.  ",
"            1 3 1 1 1 < 6 f q b M M M M M 2 ; > > : : : : > : : : > : > > : > : : : > : : > : : : > : > : : : : : > ; 1 M k 7 : : : > 1 1 1 1 t < Q       f A f  .  ",
"          I 1 1 1 1 q 0 g m m b g 7 2 6 6 > : : = = = = = = = = = = = = = = = = = = = = = = = = = = = = = : : : : : : > 2 1 , : : : : > < 1 1 1 1 a T     q A f >.  ",
"        -., 5 1 1 1 f f j M M n 0 : - ; ; : > ; & % % & & % % & % & % & % & % % & & % % % & % & & % % % & : > : > : : : ; ; : : > : : : < 1 1 1 3 < ,     q S f <.  ",
"        ;.< 5 1 1 1 f g b M m j 7 > : : : ; : ; & & & & & & & & & & & & * & & & & & & & & & & * & & & & & ; : ; ; : : : > > : : : : : : , 1 1 1 1 3 <     f A q <.  ",
"        3.< 5 < 1 2 q n M M 1 ; : : > ; % & & & & & & & & & & & & & & & & & & & & & & & & & & & & & & & & & & & & ; : : : : : : : : : : : , 1 1 1 1 1 1 7 f v f <.  ",
"        3., 5 1 1 1 q n M M 1 - : : > ; % & & & & & & & & & & & & & & & & & & & & & & & & & & & & & & & & & & & & ; > : : : : : : > : > : > 1 1 1 1 1 < 7 g v q <.  ",
"        3.< 4 1 2 0 k b k f < : > : ; = & & & & & & & & & & & & & & & & & & & & & & & & & & & & & & & & & & & & & - - - : : : : : : : : : , 1 1 1 1 1 8 w f B q <.  ",
"        3., 5 < 7 j M b 6 - : : : : = % & & & & & & & & & & & & & & & & & & & & & & & & & & & & & & & & & & & & & & % & : : : : : : : > : , 1 1 1 1 < q g f v q <.  ",
"        ;.< 5 < 6 g M b 7 > : > : : = & & & & & & & & & & * & & & & & & & & & & & & & & & & & & & & & & & & & & & & & * : > : : : : : : : > 1 1 1 1 1 q f f v f <.  ",
"        7.q r q k M M q ; > : - * = & & & & & & & & & & % $ $ $ % $ $ $ % $ $ $ $ % $ $ $ $ $ $ % & & & & & & & & & & & * * = : : : : : : , 1 1 1 1 1 q f f c f ,.  ",
"          f V q b M M q = > > - % & & & & & & & & & & & $ $ $ $ $ $ $ $ $ $ $ $ $ $ $ $ $ $ $ $ % & & & & & & & & & & & & % = > : : : : : , 1 1 1 < < q g f c f  .  ",
"        ,.q z f j n b 7 - > : = % & & & & & & & % & & % $ $ $ $ $ $ $ $ $ $ $ $ $ $ $ $ $ $ $ $ $ % & % & % & & & & & & & & = ; : : : : : > < 1 1 1 6 q f f c f >.  ",
"      ) f c f g 7 , : : : : * & & & & & & & & & $ $ $ $ $ $ $ $ $ $ $ $ $ $ $ $ $ $ $ $ $ $ $ $ $ $ $ $ $ $ % & & & & & & & & & : : : : : : : 1 < 6 f f f f c f >.  ",
"      ' f c f g 0 < : : : : * % & & & & & & & & $ $ $ $ $ $ $ $ $ $ $ $ $ $ $ $ $ $ $ $ $ $ $ $ $ $ $ $ $ $ % & & & & & & & & & ; : : : : : : 1 1 2 f f f f B f |   ",
"    ,.S f f f g 0 < > : : : ; = & & & & & & % % $ $ $ $ $ $ $ $ $ $ $ $ $ $ $ $ $ $ $ $ $ $ $ $ $ $ $ $ $ $ $ % % % % & & & & * : : : : : : : > 2 q f f f z f 1.    ",
"    q h h f f g 0 < : : : : > - % * & & & & % # $ $ $ $ $ $ $ $ $ $ $ $ $ $ $ $ $ $ $ $ $ $ $ $ $ $ $ $ $ $ $ $ # # % & & & & & : : : : : : > ; 7 g f f f B q       ",
"    f c g f f f 0 < > : : : > - % & & & & & % $ $ $ $ $ $ $ $ $ $ $ $ $ $ $ # $ $ $ # $ # $ $ $ $ $ $ $ $ $ $ $ $ $ % & & & & & ; : : : : : : : 7 g f g f B f       ",
"    f c h f f 7 1 1 1 , : : : - % & & & & $ $ $ $ $ $ $ $ $ $ $ $ $ $ $ @ + + @ + + + @ + @ + + + + # $ # $ $ $ $ $ $ % & & & & & - > : > : , 0 b n f z f D         ",
"    f z f f g 2 < 1 1 , : : : - % & & & & $ $ $ $ $ $ $ $ $ $ $ $ $ $ $ @ + + + + + + + + + + + + + $ $ $ $ $ $ $ $ # $ & & & & $ - > : ; - - 0 m M f z f )         ",
"    q c h f q 2 1 1 1 > : : > ; = & & & & % $ $ $ $ $ $ $ $ $ # # # # # @ + + + + + + + + + + + + + # # # $ $ $ $ $ $ $ % & & * = - > : < 6 q j m m f z q L         ",
"    f z f q < 1 1 1 1 , : : : : : & & & & $ # $ $ $ $ $ $ $ # + + + O + + + + + + + + + + + + + + + + + + $ $ $ $ $ $ $ # & & & : > : > 7 b M M M m f z 0 H         ",
"    f c h q 1 1 1 1 1 , : : : : : & & & & $ # $ $ $ $ $ $ $ # + + + + + + + + + + + + + + + + + + + + + + $ $ $ $ $ $ $ $ & & & ; > : ; 7 k M M M M f v 0 1         ",
"    q z g q 3 1 1 1 1 < , < > : : & & % % $ $ $ $ $ $ $ $ # @ + + + + + + + + + + + + + + + + + + + + + + @ # $ $ $ $ $ # % & & : : , 7 k m M b g 0 8 6 ^           ",
"    q z h q < 1 1 1 1 1 1 1 > : ; & & % $ $ $ $ $ $ $ $ $ @ + + + + + + + + + + + + + + + + + + + + + + + + # $ $ $ $ $ $ & & % ; ; > f m M M g 6 , 5 > ;.          ",
"    f c f e d 5 1 1 1 1 1 1 > : : * & % $ $ $ $ $ $ $ $ $ @ + + + + + + + O + + + + O + + + + + + + + + + + # $ $ $ $ $ # % & - , < 2 g m M m f 7 1 3 1 8.          ",
"    q B f ..  Q < 5 1 1 1 1 > : : : * # $ $ $ $ $ $ $ $ $ # + + + + + + O X X o o o o o o o X O + + + + + + # $ $ $ % % & % > f m m m M M n f 2 1 3 1               ",
"    f B f >.  ! , t 1 1 1 1 > : : : * # # # $ $ $ $ $ $ $ @ + + + + + @ O X o o X o o X X o X O + + + + + + # $ $ + . . . . - g m M M M M m f 2 3 1 ,               ",
"    f B q X.  Q < 5 1 1 1 1 , > : : * % = = & # $ $ $ $ $ @ + + + + + O o X X o o o o X X o o o + + + + + + # $ $ > 2 0 7 7 q b M m b b k g 0 3 < G -.              ",
"    f B f X.  ! < t 1 1 1 1 1 < : > & * > > = # $ $ $ $ $ # + + + + + o X o o o X X o o o o o X o + + + + + @ $ # 0 n M M M M M M b q f 2 , < t < Q                 ",
"    f c f X.  E , t 1 1 1 1 1 , : : & % : ; * # # # # $ $ @ + + + + + o X o o o o o o o o o X X o + + + + + # $ # 7 n M M M M M M b f g 6 1 1 t , U                 ",
"      ` f S ..  8.< t 1 1 1 1 1 < < : , 0 b q = : : = $ $ # + @ + @ + O o o o o o o o o o X o o o O + + + + # $ $ , 2 6 6 f k j 0 1 1 6 1 < 3 < 2.                  ",
"      _ q f q     , < 1 1 1 1 1 1 1 > 1 j M f & ; > - @ $ @ O O O O O . . . . . . . o o o o o o o . o + O O @ # # ; ; - = 7 g q > = : < 1 1 4 <                     ",
"      X.h h f     d U a < 1 1 1 1 1 , < q M j < 1 , - % & $ # # $ # $ @ @ @ # @ @ @ X X X X X X o @ # $ $ $ % & % ; > > : 6 q q < > , 1 1 1 3 <                     ",
"        6.f S q 7.    -.< t 1 1 1 1 1 < > m M M M 7 - > : : : : : : : : : : : : : ; o o o o O . # : : : : : : : : : : : : : > 1 1 1 1 1 1 1 t <                     ",
"        5.q D q 7.    -.> u 1 1 1 1 1 , > m M M M 6 % : : : : : : : : : : : : : > ; . . . . . . @ > : : : > : : > : : : : : > 1 1 1 1 1 1 < < >                     ",
"          ,.h 1.        / 3 1 3 1 1 1 < < f j j M j f q > : : : : : : : : : : : : : * & * * * & = : : : : : : : : : : : , < < 1 1 1 1 5 < T 9.3.                    ",
"            f             < 1 1 1 1 1 1 1 < > 6 M M M M < ; : : : : : : : : : : : : > > > > : > : : : : : : : : : : : > 1 1 1 1 1 1 1 t , -.                        ",
"            f             < 1 1 < 1 1 1 1 3 1 7 M M M m , ; > : : : : : : : : : : : : : : : : : : : : : : : : : : : : > < 1 < 1 1 1 1 4 , *.                        ",
"                                  s 1 u 1 1 1 1 7 6 j M m j 7 > : > > : : > > : : > : : : : > : : : : : > < < < : : , < 1 1 3 t u 1 T                               ",
"                                  1 , < 1 1 1 1 1 > f M M b 7 : ; : ; : : ; ; : : : : : : : : : : : : : > 1 1 < : : , 1 1 1 < < < , P                               ",
"                                  / W R < 1 1 1 1 < q m M n f < < < < < < < < , > , > > > , > > > > > , > 1 1 < > > < 1 1 1 s / ~ T *.                              ",
"                                        < u 4 4 1 < 7 g m M m f g f f f g f f 2 < 1 1 1 1 1 1 1 1 1 1 1 1 1 3 5 4 4 4 4 t < *.                                      ",
"                                        > < < < 1 < 6 g M M m f f f g f f f f 2 < 1 < < 1 1 < 1 1 1 1 1 1 3 < < < < < , < > /                                       ",
"                  1.                          3.1 3 2 7 f j k f f f f f f f f q 0 0 0 0 0 0 0 6 < 1 1 1 3 < *.                                                      ",
"                  f                             < 1 < < , 7 f f g f f f g f f f f g f g g f g 7 < 1 1 1 4 ,                                                         ",
"                  f                             2 t y y 1 r V v f f f f f f f f f f f f f f f 7 1 1 1 1 4 <                                                         ",
"                  f Z                                   y       } f A B B B B B C C C C c g f f q f f f f q Z ) D S ) ' x                                           ",
"                  q q                                   <       ` q f q f q f q f q f q f h f f g f f f f g f f f f f q q                                           ",
"                  1.<.                                  &.        1.5.1.<.1.<.4.5.5.5.4.} f h h f f h g f f h z z f { 7.X.                                          ",
"                                                                                          f B c c c c c z z z z C f                                                 ",
"                                                                                          f f f f f f f f f f f f q q.                                              ",
"                                                                                                                                                                    ",
"                                                                                                                                                                    ",
"                                                                                                                                                                    ",
"                                                  w.O.$.@.#.@.@.$.+.%.    o.#.                                                                                      "
};
