/* XPM */
static char *exit21694357825[] = {
/* columns rows colors chars-per-pixel */
"82 82 123 2 ",
"   c None",
".  c #010000",
"X  c #0E0000",
"o  c #110000",
"O  c #1C0000",
"+  c #240000",
"@  c #2C0000",
"#  c #340000",
"$  c #3B0000",
"%  c #450000",
"&  c #4C0000",
"*  c #520000",
"=  c #5A0000",
"-  c #640000",
";  c #6C0000",
":  c #750000",
">  c #7A0000",
",  c #830000",
"<  c #8C0000",
"1  c #920000",
"2  c #9A0000",
"3  c #930B0B",
"4  c #931313",
"5  c #941B1B",
"6  c #A40000",
"7  c #AC0000",
"8  c #A60B0B",
"9  c #A80808",
"0  c #B30000",
"q  c #BD0000",
"w  c #B30808",
"e  c #BE0F0E",
"r  c #B61111",
"t  c #952323",
"y  c #992121",
"u  c #962A2A",
"i  c #9A2C2C",
"p  c #973131",
"a  c #9A3333",
"s  c #9B3B3B",
"d  c #A23F3F",
"f  c #C30000",
"g  c #CA0000",
"h  c #C50B0A",
"j  c #D40000",
"k  c #DC0000",
"l  c #DE0B0B",
"z  c #C61515",
"x  c #C91515",
"c  c #C51B1B",
"v  c #CA1E1E",
"b  c #E30000",
"n  c #EB0000",
"m  c #F40000",
"M  c #FE0000",
"N  c #FD0C0C",
"B  c #C62323",
"V  c #CD2727",
"C  c #C72A2A",
"Z  c #C92E2E",
"A  c #C73131",
"S  c #C93636",
"D  c #C93C3C",
"F  c #FA2C2C",
"G  c #9D4343",
"H  c #964949",
"J  c #A04444",
"K  c #A14C4C",
"L  c #BB4242",
"P  c #A45454",
"I  c #A75B5B",
"U  c #A95D5D",
"Y  c #B85959",
"T  c #A76262",
"R  c #AB6464",
"E  c #AC6B6B",
"W  c #B06D6D",
"Q  c #AD7373",
"!  c #AD7979",
"~  c #B17373",
"^  c #BA7777",
"/  c #B57B7B",
"(  c #B87E7E",
")  c #CC4343",
"_  c #CC4949",
"`  c #CC5454",
"'  c #CE5959",
"]  c #D95B5B",
"[  c #FC5D5D",
"{  c #CE6363",
"}  c #CF6D6D",
"|  c #CE7171",
" . c #CF7F7F",
".. c #D17373",
"X. c #D37E7E",
"o. c #9137CF",
"O. c #923DCF",
"+. c #984FD1",
"@. c #9C5ED2",
"#. c #9D61D2",
"$. c #A165D4",
"%. c #AC7CD9",
"&. c #B78989",
"*. c #BB8C8C",
"=. c #B69191",
"-. c #BC9494",
";. c #BD9A9A",
":. c #C18E8E",
">. c #D38282",
",. c #D98585",
"<. c #D68A8A",
"1. c #DA8D8D",
"2. c #C39595",
"3. c #C19B9B",
"4. c #D79292",
"5. c #DA9595",
"6. c #D59999",
"7. c #DB9C9C",
"8. c #C5A1A1",
"9. c #C8A4A4",
"0. c #D6A0A0",
"q. c #E0A1A1",
"w. c #BE9EE0",
/* pixels */
"                                                                                      #.o.    %.+.$.@.@.@.@.$.O.w.                                                  ",
"                                                                                                                                                                    ",
"                                                                                                                                                                    ",
"                                                                                                                                                                    ",
"                                              q.q f f f f f f f f f f f f                                                                                           ",
"                                                q C z x c z c c c c c C f                                                                                           ",
"                                          X.7.{ f x h h f f f f f f f h f } 5.5.4.5.4.<.<.<.<.6.1.        *.                                  <.1.                  ",
"                                          q q f f f f f f f g f f f f f f f f q f q q f q f f f q `       <                                   q q                   ",
"                                          x ` ) D D ) Z f q q f f f f f f c C C C C C B C B B Z g }       t                                   Z f                   ",
"                                                        < 4 2 3 2 < 7 f f f f f f f f g f f f f f f B V r 2 y y t 2                             f                   ",
"                                                        , 4 1 1 1 < 7 g f g g g g f g f f g f g f f f f 6 , < < < <                             f                   ",
"                                                      *.< 3 1 1 1 1 6 0 7 0 0 0 0 0 0 f f f f f g f f k j f 7 6 1 1 3.                          <.                  ",
"                                      / > < < < < < , < 1 1 1 1 1 1 < < 1 < < < 1 < 2 f g f f f f g f m M M g 6 < 2 < , < >                                         ",
"                                      *., t 4 4 4 4 5 3 1 2 < 1 1 1 1 2 1 2 1 2 2 < 2 f g f f f f f f m M m g 6 < 1 4 5 i <                                         ",
"                              *.R Q / s 1 1 1 , > > < 2 1 > > > > > > > > > > > > > > < < < < < < < < f n M m q , 2 1 1 1 1 R ~ /                                   ",
"                              P , < < < 1 1 2 , ; : < 2 < > : : : : : : : : : : : : : ; : ; ; : : ; : 7 b M M f > 1 1 1 1 1 < , 1                                   ",
"                              T < u t 3 1 1 < , : : < < < > : > : : : : : : > : : > : > : > > : : : > 6 j m M j 6 7 2 1 1 1 t 1 s                                   ",
"                        *., 4 1 1 1 1 1 1 1 : : > : : : : : : : : : : : : : : : : : : : : : : : : : : > ; , m M M M 7 < 2 < 1 1 1 1 1 < <             f             ",
"                        -., t 1 1 1 1 1 2 1 > : : : : : : : : : : > > > > > > : : : : : : : : : : : > : ; < M M M M 6 > < 1 1 1 1 < 1 1 <             f             ",
"                    2.9.T < 5 1 1 1 2 , , , : : : : : : : : : : : = & * * & * * : > : : : : : : : : : : : > f f j M j j f < < 1 1 1 3 1 3 (         1.h ,.          ",
"                    > < < 1 1 1 1 1 2 > ; : : : : : : : : : : : : @ . . . . . . ; : : : : > : : : > : : > : : % 6 M M M m > , 2 1 1 1 1 i > =.    7.q D q 4.        ",
"                    < t 3 1 1 1 < 1 1 > : : : : : : : : : : : : : # . o o o o O ; : : : : : : : : : : : : : > - 6 M m M m > , 2 1 1 1 1 t < -.    7.f S f 6.        ",
"                    < 3 1 1 1 , > < q q 6 : > > : % & % # $ $ # @ o o o X X X X @ @ @ @ @ @ @ $ # $ $ # $ & % - , 2 < j M q < > 1 < 1 1 2 < a U d     f f z X.      ",
"                    < 4 1 1 < : = > f g 7 = ; ; - # # @ O O + o . X o o o o o o . . . . . . . O O O O O @ # @ - > : * g M g 1 > 2 1 1 1 1 1 < < ,     q f f )       ",
"                  -.< 3 1 2 2 1 2 0 j j f 6 6 2 , $ $ # + + @ + O o o X o o o X o o o o O o o + @ + + + # $ $ = ; : = 0 n 0 , : < < < 1 1 1 1 t < 3.  ..D f `       ",
"                U < t 1 1 6 g f b M M M M M M b 0 # $ # + + + + + O X o o X X o X o o o o X o + + + + + @ $ $ $ # # # * ; : % & : ; , 2 1 1 1 1 t , E   X.f c q     ",
"                Q < t < , 2 f q b M M M M M M n 0 # $ # + + + + + o X X o X o o X o o o o o o + + + + + @ $ $ $ $ $ # = > > & & > : , 2 1 1 1 1 t < !   X.q B f     ",
"              -.G 1 3 0 g k n b m m b q 7 7 7 2 > $ $ # + + + + + O O X o o o X o o X X X o O + + + + + # $ $ $ $ $ $ & = = % * > : > , 1 1 1 1 t < !   X.f B f     ",
"              , 1 3 2 q m M M M M m g ; . . . . + $ $ # + + + + + + O X o X X o o X o o X O @ + + + + + @ $ $ $ $ $ $ # # # # & : : : : 1 1 1 1 t < !   ,.f B f     ",
"              1 3 1 2 f n M m m m m f > % & & % $ $ $ # + + + + + + O X o o o o o o o o X O + + + + + + # $ $ $ $ $ $ $ $ % # * : : : > 1 1 1 1 5 < Q   ..f B q     ",
"          8.2 3 < 6 g m M m g 2 < , - & % # $ # $ $ $ # + + + + + + + + O + + + + O + + O + + + + + + + # $ $ $ $ $ $ $ $ $ % & = : : > < 1 1 1 1 1 5 d e f c q     ",
"          ;.> 5 , 6 g M M m f > ; ; % & % $ $ $ $ $ $ # O + + + + + + + + + + + + + + + + + + + + + + O @ $ $ $ $ $ $ $ $ $ % & & ; : > 1 2 1 1 1 1 1 < q f x f     ",
"          ^ 6 8 0 g k M m k 6 , : : * & % # $ $ $ $ $ # @ + + + + + + + + + + + + + + + + + + + + + + @ # $ $ $ $ $ $ $ $ % & & * : : > , < < 1 1 1 1 3 q g c f     ",
"        2 7 v f m M M M b 6 : : : : & & & $ $ $ $ $ $ $ # + + + + + + + + + @ + + + + + + + + + + + + # $ $ $ $ $ $ $ $ $ & & & & ; : : : : , 1 1 1 1 1 q f c q     ",
"        H 7 z f m M M M b 7 > : > : & & % # $ $ $ $ $ $ $ + + + + + + + + + + + + + + + + + + + + + + # $ $ $ $ $ $ $ $ $ & & & & : > : : : > 1 1 1 < < q h c q     ",
"        L q x f m m j q 6 < : : ; = & & & % $ $ $ $ $ $ $ # # # + + + + + + + + + + + + + @ # # # # # # $ $ $ $ $ $ $ $ $ % & & & = ; : : : , 1 1 1 2 q f f x f     ",
"        ) f x f m n 0 ; - ; : : = % & & & & $ $ $ $ $ $ $ $ $ $ + + + + + + + + + + + + + @ $ $ $ $ $ $ $ $ $ $ $ $ $ $ $ & & & & % - : : : > 2 1 < 6 f f f c q     ",
"        D f z f m n 0 , > > : > - & & & & & % $ $ $ $ $ $ $ $ # + @ + + + @ + + + + + @ + @ $ $ $ $ $ $ $ $ $ $ $ $ $ $ % & & & & & - : : : , < 1 1 6 f f g x f     ",
"      f B f f f g 7 : : : : : : : ; & & & & & % $ $ $ $ $ $ $ $ $ # $ $ $ # $ $ $ $ # $ $ $ $ $ $ $ $ $ $ $ $ $ $ $ $ % & & & & & & - : : : : > < 0 f f f f v f     ",
"      q B g f f g 6 ; : : : : : : : & & & & & % # # $ $ $ $ $ $ $ $ $ $ $ $ $ $ $ $ $ $ $ $ $ $ $ $ $ $ $ $ $ $ $ $ # % & & & & & % - > : : : > < 0 g f f h h q     ",
"    1.f h f f f q 2 , > : : : : > ; & & & & & % % % % $ $ $ $ $ $ $ $ $ $ $ $ $ $ $ $ $ $ $ $ $ $ $ $ $ $ $ $ $ $ $ $ % & & & & & & = ; : : : > < 0 g f f f S ,.    ",
"  | q B f f f g 2 < 1 : : : : : : : & & & & & & & & & % $ $ $ $ $ $ $ $ $ $ $ $ $ $ $ $ $ $ $ $ $ $ $ $ $ $ $ $ $ $ & & & & & & & & & * : : : : < 0 f f c f '       ",
"  >.f c f f f f 2 < < : : : : : > ; & & & & & & & & & % $ $ $ $ $ $ $ $ $ $ $ $ $ $ $ $ $ $ $ $ $ $ $ $ $ $ $ $ $ $ & & & & & & & & & * : : : : < 0 g f c f )       ",
"  >.f c f g q 6 2 1 1 < > : > : : : ; = & & & & & & & & % % & % & $ $ $ $ $ $ $ $ $ $ $ $ $ $ $ $ $ $ $ $ $ % & % % & & & & & & & & = ; > - 6 n b j q x f ,.        ",
"  >.f c f f q < < 1 1 2 > : : : : : > = % & & & & & & & & & & & & $ $ $ $ $ $ $ $ # $ $ $ $ $ $ $ # $ $ $ $ & & & & & & & & & & & % - > > = q M M n q v q           ",
"  >.q c f g q 1 1 1 1 1 , : > : : : > = * = & & & & & & & & & & & % $ $ $ $ $ % % $ $ $ $ $ $ % $ % $ $ $ % & & & & & & & & & * = * - : > ; f M m j q c q 7.        ",
"  <.f B f f q < 1 1 1 1 > : > : : : : : : : * & * & & & & & & & & & & & & & & & & & & & & & & & & & & & & & & & & & & & & & & = : : : : > 7 b m j 6 < 5 < ;.        ",
"  <.f c f g q 1 1 1 1 1 , : : : : > : : : : & % & & & & & & & & & & & & & & & & & & & & & & & & & & & & & & & & & & & & & & % = : : : : - 6 b M j 6 < 5 , 3.        ",
"  <.f c g q 8 1 1 1 1 1 , : : : : : : > : : - - = & & & & & & & & & & & & & & & & * & & & & & & & & & & & & & & & & & & & & = ; : > : , f j b b 0 2 1 5 , 3.        ",
"  <.q B g 6 < 1 1 1 1 1 > : : : : : : : : : : > : & & & & & & & & & & & & & & & & & & & & & & & & & & & & & & & & & & & & & ; : : > - 2 M M n q 1 < 1 5 < 3.        ",
"  <.f c f 6 1 1 1 1 1 1 , : > : > : : : : : : : : & & & & & & & & & & & & & & & & & & & & & & & & & & & & & & & * & & & & % ; : : > ; 2 M M n q 2 1 1 5 , 3.        ",
"  <.q A f     < 3 1 1 1 1 , : : : : : : > > : : : ; ; ; ; & & & * & & & & & & & & & & & & & & & & & & * & & & & & & ; ; ; : > : > 7 j n M b g f 2 1 1 4 < 3.        ",
"  <.q D q     , 1 3 1 1 1 < : : : : : : ; - : : : : > > : & % & & % & % % & % & & % & & & % & % & & % & % & & % % % ; > : ; ; - : 0 n M M j q f 1 < 1 5 , -.        ",
"  >.f A f     R p < 1 1 1 < > : : : : , 2 6 > : : : : : : = = = = = = = = = = = = = = = = = = = = = = = = = = = = = : : > 6 6 2 6 g n m m g q q 2 1 1 1 I           ",
"  X.f A q       E < 5 1 1 1 1 > : : : 7 b m 1 ; > : : : : : : : : > : : : > > : : : : : > : : : : : : > : : : : : > , ; 2 M M M M M k q f 6 < 1 < 1 3 <             ",
"  >.q A f       E < t 1 1 1 1 > : : : 6 b M , - > : : : : : : : : : : : : : : : : : : : : : : > : : : : : : : : : = - & , M M M M M b f g 6 < 1 1 4 1 ,             ",
"  >.f A f       Q < 5 1 1 1 < < > > : 6 b M j 6 : : : : : : : : : : : > : : : : : : : : : : : : : : : : : : > ; 2 g j g j M M m j j 0 6 0 2 < 2 3 < P               ",
"   .f A f       E , t 1 1 1 < 2 , : : 7 k M M f = > : : : > : : : : : : : : : : : : : > : : : : : : : > : : > = 7 M M M M M M m q 1 < < < 1 1 1 t < !               ",
"  X.f A q       E < t 2 1 1 1 1 , : : 6 j M M f ; > : : : : : : : : : : : : : > : : : : : > : : : > : : : : > - 6 M M m M m m n q 2 < 1 1 1 1 1 t < Q               ",
"      f f         8.< 3 1 1 1 1 1 < > : 6 j m M j : > > > : : : : > : : : : : : : > : : : : : : : : : : : : > - 7 M j g g j 6 , , : < 1 1 1 1 u < 8.                ",
"      q f           > 3 1 1 1 < 1 < : ; 1 g m M n = - ; : : : : : : : : : : : : : > : : : > : : : : : : : : > = 6 M g q g g 1 - : ; , 2 1 1 < < >                   ",
"      ....          E 5 1 1 1 1 2 < , > 2 g n M m 7 0 6 < : : : : : : > : > : : : : : : : : : : : : : > : : > , q n j q 0 0 < : , > < 1 3 1 K *.(                   ",
"                      s 1 t 4 1 1 1 2 1 6 g q b M M M n f , : : : : : : : : : : : : > : : : : : : : : : : : : 7 g q g 6 - : : > 1 1 1 1 p < ;.                      ",
"                      1 , < , 1 1 < 1 < 6 g f n M M M n 0 ; - : : > : : : : > : : : : : : : : : > : : : > : ; 0 g f j 6 - > : > 2 1 1 < < > =.                      ",
"                              P < 4 3 1 2 6 6 g k j m m n b f 2 > : > : : : : : > : : : : : : : : : : : : : : < 2 2 2 1 < < , < 1 1 < K                             ",
"                              R , 1 < 1 1 < , 7 f f m M M M b 0 ; : : ; : : : : : : : : : > : : : > : : : : > ; ; ; - > 2 1 2 1 1 4 < I                             ",
"                              W 2 d i 3 2 1 < 0 f f n M m m b 0 < , < , > : : : : : : : : : : : : : : : : > > > > > > , 1 < 1 1 1 1 1 E                             ",
"                                      / < u 1 1 2 1 q g g f n M m m m m , : > : : > : > : : : : : > : : , 1 1 < < 1 5 t t t t t s ,                                 ",
"                                      Q > < 1 1 1 < q g g f n M M M M m : = : : : : : : : : : : : : : ; , 1 1 1 1 1 < , < , , < < :                                 ",
"                                        *.2.i 1 3 1 7 0 0 0 g b n m M m q 6 1 , , , , , , > , , , , , , , 2 1 1 1 1 &.2.2.2.3.*.*.(                                 ",
"                                            P < t 1 1 < < < , 2 f m M M M b 0 1 1 2 1 1 1 1 1 1 1 1 1 1 1 1 1 1 3 1                                                 ",
"                                            J , 1 1 1 1 1 2 < 6 g m M M M j 7 < < < < 1 1 1 1 1 1 1 1 1 1 1 1 < < <                                                 ",
"                                                  1 4 3 3 3 1 2 8 w h b N N n n n j 7 1 1 1 1 1 1 1 1 1 1 1 < 8.                                                    ",
"                                                  < < < < < < < < > 2 g M m M M M n q 1 1 < 1 1 < 1 1 < 1 3 <                                                       ",
"                                                  K U U U U i 4 I P Y ] [ F m m m b q 2 2 2 2 2 2 2 2 2 2 3 2                                                       ",
"                                    f                       ;.R           5.f S B C B f f h B f f f f f f f f g f C B B c B Z g )                                   ",
"                                    f                       &.s           ,.q f q q f f h f f f f f f f f g f f f f q f f q f q f                                   ",
"                                    5.                                      7.      5.h f { 7.A f x h h h f c f '     7.6.7.7.q.                                    ",
"                                                                                      f q 0.  ` f x f f f f Z q <.                                                  ",
"                                                                                      f f 6.  ) f f f f f f h f ,.                                                  ",
"                                                                                                                                                                    ",
"                                                                                                                                                                    "
};
