/* XPM */
static char *bddcdd8bae3542fee4e20d1bde417aebZMTjNRQYUqKdfOHZ[] = {
/* columns rows colors chars-per-pixel */
"82 82 239 2 ",
"   c None",
".  c #000000",
"X  c #0B0000",
"o  c #150100",
"O  c #1C0101",
"+  c #14000D",
"@  c #1A1616",
"#  c #15130E",
"$  c #240000",
"%  c #2C0201",
"&  c #2D0905",
"*  c #2D0C08",
"=  c #260A09",
"-  c #320201",
";  c #3B0402",
":  c #320B06",
">  c #320E0A",
",  c #3A0E0D",
"<  c #380607",
"1  c #2B1409",
"2  c #35120D",
"3  c #3D110C",
"4  c #391804",
"5  c #340F11",
"6  c #2A1412",
"7  c #291A19",
"8  c #341211",
"9  c #3C1512",
"0  c #3B1916",
"q  c #3C1C1A",
"w  c #361D15",
"e  c #24221C",
"r  c #2D271B",
"t  c #3C241D",
"y  c #38281A",
"u  c #3A3513",
"i  c #1C1F20",
"p  c #2B1E21",
"a  c #2C2A22",
"s  c #3D2B22",
"d  c #3A2926",
"f  c #3C3529",
"g  c #3D3734",
"h  c #2F3127",
"j  c #420402",
"k  c #450806",
"l  c #44110E",
"z  c #46140F",
"x  c #441512",
"c  c #491411",
"v  c #451915",
"b  c #4A1A16",
"n  c #4B1D1A",
"m  c #441D18",
"M  c #462D05",
"N  c #43361C",
"B  c #473216",
"V  c #543F17",
"C  c #4A2C13",
"Z  c #422E2B",
"A  c #442A25",
"S  c #433325",
"D  c #43332B",
"F  c #423C2C",
"G  c #4B3B2E",
"H  c #48362B",
"J  c #51352D",
"K  c #4B3C33",
"L  c #463A35",
"P  c #543B39",
"I  c #594415",
"U  c #624A1A",
"Y  c #69521E",
"T  c #48452E",
"R  c #454332",
"E  c #4B4434",
"W  c #4B4935",
"Q  c #4D4C3A",
"!  c #48453A",
"~  c #524436",
"^  c #534439",
"/  c #524D3C",
"(  c #594A3D",
")  c #53513D",
"_  c #59553C",
"`  c #5A583B",
"'  c #694A29",
"]  c #685125",
"[  c #785C3A",
"{  c #4E4942",
"}  c #534444",
"|  c #544B47",
" . c #565442",
".. c #595543",
"X. c #5C5A46",
"o. c #5D5B4A",
"O. c #585749",
"+. c #5C5354",
"@. c #624D45",
"#. c #625445",
"$. c #615C46",
"%. c #625D4A",
"&. c #6A5E4E",
"*. c #67544A",
"=. c #6D5C52",
"-. c #655956",
";. c #745E59",
":. c #64624D",
">. c #69644F",
",. c #636147",
"<. c #666451",
"1. c #6A6652",
"2. c #6C6A55",
"3. c #6F6D59",
"4. c #6C655A",
"5. c #726454",
"6. c #716C56",
"7. c #7A635D",
"8. c #726D5A",
"9. c #796C5C",
"0. c #786658",
"q. c #75725C",
"w. c #78765F",
"e. c #665F60",
"r. c #6A6364",
"t. c #746C6C",
"y. c #746867",
"u. c #767461",
"i. c #7A7661",
"p. c #7D7B64",
"a. c #7E7C69",
"s. c #76726D",
"d. c #797372",
"f. c #7D7975",
"g. c #836A52",
"h. c #856C66",
"j. c #817D66",
"k. c #83736C",
"l. c #837E69",
"z. c #877669",
"x. c #857B75",
"c. c #877A77",
"v. c #907B73",
"b. c #997F69",
"n. c #85836C",
"m. c #89856E",
"M. c #8B886F",
"N. c #868371",
"B. c #8A8671",
"V. c #8D8A72",
"C. c #8E8C7A",
"Z. c #8A827C",
"A. c #948679",
"S. c #918F7D",
"D. c #968277",
"F. c #94917E",
"G. c #867E80",
"H. c #8C8685",
"J. c #938B85",
"K. c #9B8A84",
"L. c #959382",
"P. c #9A9585",
"I. c #9C9986",
"U. c #999689",
"Y. c #9A9492",
"T. c #9A8F91",
"R. c #A3938B",
"E. c #A49B8C",
"W. c #A29687",
"Q. c #AB9B94",
"!. c #A89D97",
"~. c #B19D97",
"^. c #A5A394",
"/. c #ABA594",
"(. c #ADAC9B",
"). c #A7A398",
"_. c #B4AB9E",
"`. c #B7A69A",
"'. c #AAA793",
"]. c #ADABA2",
"[. c #ABA5A5",
"{. c #B2ADA4",
"}. c #BBABA3",
"|. c #B3ABA4",
" X c #B5B2A3",
".X c #B8B4A5",
"XX c #B5B4AB",
"oX c #BBB5AA",
"OX c #BCBAAC",
"+X c #BCB9A7",
"@X c #BDBBB4",
"#X c #BEBEB9",
"$X c #B8B7B2",
"%X c #C1BDAE",
"&X c #C5B6AE",
"*X c #C2BEB3",
"=X c #CBBBB3",
"-X c #C3BEB9",
";X c #CBB8B0",
":X c #BEC0BD",
">X c #C4C2B4",
",X c #C5C3BC",
"<X c #C9C5BC",
"1X c #CECABC",
"2X c #C8C6B6",
"3X c #D2C4BC",
"4X c #D5C6B9",
"5X c #C4C1AF",
"6X c #C5C5C1",
"7X c #CDCBC3",
"8X c #CBCAC5",
"9X c #D3CDC4",
"0X c #DAC9C2",
"qX c #D3D1C6",
"wX c #D4D2CC",
"eX c #DAD5CE",
"rX c #DBD8CE",
"tX c #DCD3C6",
"yX c #DAD7D1",
"uX c #DDDBD4",
"iX c #D7D6D1",
"pX c #E3D5CC",
"aX c #E2D6C9",
"sX c #E2DED4",
"dX c #E5DDD6",
"fX c #E4E1D6",
"gX c #E5E2D9",
"hX c #E5E3DB",
"jX c #EAE4DC",
"kX c #EBE6DB",
"lX c #F1E7DD",
"zX c #EBE7E1",
"xX c #EDEAE3",
"cX c #F2EDE5",
"vX c #F1EEE8",
"bX c #F8EFE6",
"nX c #F5F2EA",
"mX c #FAF4EB",
"MX c #F9F1E6",
/* pixels */
"                                                                                                                                                                    ",
"                                                                                                                                                                    ",
"                                                                            wXwXwXwXiXuXwX                                                                          ",
"                                                                  ,XyXuXiXwXuXuXuXuXiXuXyXyXuXuX,X                                                                  ",
"                                                            [.Y.].2XgXnXzXzXdXhXgXgXhXuXgXhXnXfX<X].T.[.                                                            ",
"                                                      [.Y.r.+.t.XXrXgXhXhXgXhXdXfXgXhXuXfXfXkXfXyX|.y.+.r.Y.[.                                                      ",
"                                                  !.T.H.G.g L c.*XhXhXfXhXhXgXgXfXgXgXgXfXgXfXkXjX*Xx.L g H.H.T.[.                                                  ",
"                                              [.H.t.| g i . e.!.9XjXfXuXuXsXsXuXfXfXuXfXuXuXrXfXjX0XQ.-.. i g } y.H.[.                                              ",
"                                            c.d.r.} , o . . k.;XdXlXhXfXgXhXgXgXgXfXfXfXfXfXfXfXcXpX;Xs.. . o , } r.d.c.                                            ",
"                                        T.d.} % o $ ; < q ; F.aXkXkXgXgXfXfXfXuXsXsXfXfXsXsXfXkXlXkXtXK.- m < - $ X $ } d.Y.                                        ",
"                                      G.r.P q - - < x $ Z 5._.fXfXqX1X2X:X.X.X X]. X X X:X:X:X1XqXfXdX`.;.d o l < % - q P r.H.                                      ",
"                                    t.e.} - < j l v m X g k.}.4X2X].^.I.L.B.N.a.n.a.n.n.V.F.I.^.].2X0X`.d.f . v v l j < - } e.d.                                    ",
"                                  t.+.Z , j j j j k l % s y.A.F.N.q.6.3.2.2.2.2.<.2.2.2.2.2.3.3.q.V.L.A.9.Z $ l k j k j j , Z +.d.                                  ",
"                                H.-.L - ; k k k j ; < % s =.9.6.:.` ,.,.,.:.1.1.2.<.2.<.:.,.,.,.` >.2.q.=.s % < ; j j k k - - L -.J.                                ",
"                              !.K.} X x l j j j j ; % $ y #.6.6.q.w.w.w.w.w.i.w.w.w.w.w.p.w.p.u.q.q.8.6...t $ % ; j j j j l v o } c.[.                              ",
"                              Q.A.P o c c j j j < % % O S >.9.q.w.w.w.w.p.w.w.p.w.p.w.w.w.w.w.w.w.q.q.q.&.D O % - < j j j l v o P v.`.rX                            ",
"                            -XQ.h.P $ c l j j ; - $ o 1 K 8.j.w.w.w.w.w.w.w.w.w.w.w.p.w.w.w.w.w.w.w.p.j.6.E = $ % % ; j j l z % P h.|.9X                            ",
"                            -XQ.h.L o x c j ; < & $ o y ( 8.j.i.p.w.p.w.n.p.p.p.p.p.p.w.p.p.p.w.w.w.w.j.9.^ r O $ & ; ; j z v o K h.~.-X                            ",
"                          uX9X}.7.Z O b c j ; % & O o f ..i.j.p.p.p.w.p.w.n.p.p.p.p.w.p.p.p.w.p.p.p.w.n.w...f O O & - - j c b o Z y.|.0XeX                          ",
"                          dXdXoX;.A $ b c ; - % & O o D #.i.j.j.p.p.n.w.n.w.p.p.p.n.n.p.p.n.n.p.p.p.w.n.w.#.f O O & % - ; c b $ Z ;.&XdXuX                          ",
"                          pXdX=X;.Z $ b c ; - % * O o K &.p.n.p.p.p.n.p.w.n.w.p.p.n.p.n.n.w.n.w.p.p.p.n.w.,.F o $ * % - ; c n $ Z 7.&XdXuX                          ",
"                          eXzX=Xh.L o n l - % $ * O o K >.p.n.p.n.p.p.n.n.w.n.p.n.p.p.n.n.w.w.n.j.j.p.n.p.>.K O $ * % % - x n o L h.=XdX9X                          ",
"                          uXdX=Xv.L X n x % % % * $ O K 5.j.n.a.p.p.n.n.n.n.n.n.n.w.n.p.p.n.n.n.n.j.j.n.n.>.~ O O > % % % v n o P v.=XjXiX                          ",
"                        :XuXzX7XD.} . m x % % & * O O ^ 5.j.m.a.n.n.n.p.n.w.n.n.n.n.n.n.n.n.p.w.n.j.j.n.w.6.~ o O > % % % 9 n X } K.0XzXiX:X                        ",
"                        6XhXzX0XQ.@.. b 9 % % % * O O / 0.l.m.a.n.n.n.w.n.n.n.n.n.n.n.n.n.n.n.n.j.n.j.n.j.5./ O $ * & % % 9 n . @.Q.0XzXdX6X                        ",
"                        :XzXxXyX&X*.. x 9 % % % * $ O ^ 0.l.m.n.n.n.n.n.n.n.n.n.n.p.n.p.n.p.n.n.n.j.n.m.n.6.~ O $ 2 % % % 3 v . *.&XpXxXhX6X                        ",
"                        #XuXvXdX;X;.. x , % % : > $ O / 0.l.M.l.p.n.n.n.n.w.n.n.n.n.n.n.n.n.n.n.j.j.n.n.j.5.^ O $ 2 % % % , x . 7.;XdXxXuX:X                        ",
"                        -XuXvXcX0Xv.- , - & % : > $ o ^ 5.l.M.l.n.n.n.n.n.n.n.n.n.n.n.n.n.n.n.n.n.n.j.M.n.5.^ O $ > & & & % , - v.0XbXvXuX:X                        ",
"                        ,XuXvXvXpXR.P , % 5 : - > $ O ~ 4.l.M.l.n.n.n.n.n.n.n.n.n.n.n.n.n.n.n.n.n.n.j.M.l.5.K O % > & : 8 $ 8 P R.pXbXcXuX#X                        ",
"                        ,XuXvXnXdX}.;.p X q > % : % O K 5.l.M.m.n.n.n.n.n.n.n.n.M.n.n.n.n.n.n.n.n.n.j.M.z.1.K $ $ > - > q . e 7.}.jXmXxXuX,X                        ",
"                        6XdXvXnXzX3XK.d . q > % : $ O G &.j.M.l.n.n.n.n.n.n.n.n.n.n.n.n.n.n.n.n.n.n.n.M.l.&.H O % : - > q . d K.3XzXmXxXuX-X                        ",
"                        ,XdXnXnXzXpX}.A . 8 * : : % $ D &.j.M.l.n.n.n.n.n.n.n.n.n.M.n.n.n.n.n.n.n.n.n.M.j.$.D $ % : : * > . J `.sXzXnXxXuX#X                        ",
"                        6XuXnXxXlXlX=X;.- o * 8 & % O s #.j.B.n.n.n.n.n.n.n.n.n.M.n.N.n.n.n.n.n.n.n.n.V.j...t % % & > * o : 7.=XlXxXxXvXuX:X                        ",
"                        6XwXxXxXjXbXaXR.#.. % 9 : % % w | j.B.n.n.n.n.n.n.n.n.n.n.n.n.n.n.n.n.n.n.N.n.V.k.( w % % : w % . *.R.pXcXzXxXnXuX,X                        ",
"                        $X7XhXvXmXmXdX;Xk.. $ 0 : % % & ~ h.M.n.M.M.n.n.n.n.n.M.M.N.n.n.n.n.M.n.m.n.M.M.i.~ % % % : q % . v.;XdXnXvXnXxXqXXX                        ",
"                        $X*X7XsXcXvXcXdX~.n - : > & % % G 9.m.m.M.n.n.n.n.n.n.n.n.B.n.n.n.N.n.m.n.n.m.n.0.H % - : > & - n ~.pXbXvXzXfXwX7XXX                        ",
"                        ,X,XXX@X9XzXmXmX4Xg.J . q 9 % o A 5.l.m.M.n.n.M.n.n.n.n.n.n.n.M.M.n.M.n.n.N.m.l.5.A o % 9 0 . J h.4XMXMXkX8X$X].6X6X                        ",
"                        6X7XqX@X|.@XeXzXaX}.g.O l l , $ s &.z.B.M.n.n.n.M.M.n.n.M.n.n.n.n.n.n.n.n.M.M.k.&.s $ , 9 x O g.}.aXlXtX@X{.@X2X8X8X                        ",
"                          uXhX7XY.s.J.<XaX4Xv.j j ; x % t @.i.m.M.N.n.n.n.n.M.n.n.N.n.M.n.M.n.n.n.B.B.i.@.y % 9 ; j j D.4XtX<XJ.s.).8XzXdX                          ",
"                          yXyXhXqXf. .k.E.`.b.' k % < o 7 ^ 0.m.M.n.n.n.M.n.M.n.n.n.n.n.n.M.n.n.n.M.m.0.^ 6 o < % l ' D.`.E.d.| Z.7XhXuXiX                          ",
"                            6XkXkX).R . u 9.g.[ B 3 z - 6 S &.l.n.N.n.n.M.N.n.n.n.n.n.M.M.N.M.n.m.M.m.&.S 1 % z : B [ 0.6.N . { ^.gXdX6X                            ",
"                            :XhXvX2XS.u . d I Y ] ] I M 4 4 [ n.M.M.N.M.n.n.M.n.N.n.n.N.n.n.N.M.M.M.l.` 4 4 C V ] ] Y I u o T J.@XwXwX:X                            ",
"                              uXkXrX X2.u a u I ] ] U I V 4 ~ 6.a.n.M.n.N.n.M.n.n.n.n.N.n.M.M.N.m.z.6.T 4 M I U ] ] I u a f 2..XqX8X8X                              ",
"                              8XiXfX1XS.3.,.W f N V I I I 4 T ` 3.p.N.M.M.M.n.n.n.n.n.M.N.n.C.N.p.5.` T M I U I V N f Q ,.q.F.1XhXuX6X                              ",
"                                1XfXsX:XF.,.,.O.F u B N N y r r F { o.u.a.B.M.n.n.n.n.M.N.a.3.o.Q g r r y N B B u F ..:.>.L.:XkXxX8X                                ",
"                                qXfXkXsX+XN.p.2.G = + @ 7 a 7 # . . @ Q 3.n.n.n.n.n.N.M.n.3.Q # X . # e a e @ + = G 6.n.M.+XfXxXzX8X                                ",
"                                  qXvXxXsX+XF.,.s $ = 6 7 & S /  .! # e O.u.N.M.n.n.M.M.u.{ @ # W ) _ f = 6 6 = $ s ,.F.:XgXmXrX6X                                  ",
"                                  :XwXkXlXsX Xi.d . 2 * & % T 5.q.2.! e h <.N.N.n.M.N.N.<.h i W 2.q.5.G % % > 8 . f w. XaXmXxXqX                                    ",
"                                    6X6XxXcX1XW.R . q > % % / 9.a.a.2.Q e o.N.M.n.M.n.a.O.e Q 3.p.j.8.^ % % > 0 . L R.0XMXcX7X,X                                    ",
"                                      @XrXkX4XW.g . d 8 % * _ k.n.a.u.:.h O.a.n.M.M.n.a.O.h <.p.l.n.z...& % 5 A . ! R.=XgXrX#X                                      ",
"                                      #X<X4X}.D.g . q > & y &.z.n.a.a.3.R O.a.n.M.M.n.p.O.R 3.a.j.n.j.#.w & > A . g D.&X4X<X#X                                      ",
"                                      uX1X%X`.z.A . o O 2 t &.l.n.n.M.u.W O.i.j.n.M.a.q.O.Q i.M.l.m.l.&.t > o o . Z v./.%X7XuX                                      ",
"                                      zXqX X/.A.@.m D 6 = D >.l.n.n.V.j.o.o.q.a.M.M.a.3.o.o.j.V.n.m.n.&.S & 6 D m ( A./. X9XzX                                      ",
"                                      hXrX%X.XE.h.5.7.K . G 1.M.M.n.M.n.2.<.<.a.M.M.p.2.<.3.n.M.m.m.m.5.H . E y.0.h.Q..X+XrXhX                                      ",
"                                      hX9X%X*X XI.W.E.4.. / 6.l.n.l.M.n.u.3.3.p.M.M.p.3.3.i.n.n.j.n.j.6./ . 4.E.E.W. X@X>X7XhX                                      ",
"                                        *XOX*X%X X+X%Xn.1 $.9.q.q.i.n.p.i.i.p.a.n.n.j.p.i.i.j.n.j.q.q.6.$.1 N.5X%X(.OX>X+X>X                                        ",
"                                          {.OX>X(.+X>XS.T :.1.:.<.3.i.i.q.q.i.i.p.p.i.p.q.q.i.w.6.>.:.<.:.T S.>X+X(.:X+X'.                                          ",
"                                            @X>X^.(.+XS.X.<.:. .X.:.3.3.1.3.u.3.8.2.8.q.2.>.3.3.:.X. .:.>.o.S.+X(.'.5X:X                                            ",
"                                            <X>XF.C.F.p.:.1.<.,.X.X.<.2.:.<.3.1.,.:.1.3.1.:.2.<.X.X.,.:.1.>.a.L.C.L.5X:X                                            ",
"                                            7X>XI.C.S.i.<.:.:.:...) ,.<.O.:.3.:. .X.:.2.:.X.:.:.Q ` :.:.<.<.p.V.V.I.>X<X                                            ",
"                                            9X<X(.'.^.n.,.O.X.X.) W o.,. .<.3.:. . .:.3.:. .:.o.Q Q X.X.o.,.m.^.'.(.,X9X                                            ",
"                                              <X'.E.I.M.8.X.Q ) W W X.o.) o.3.o.) ) :.2.o.Q X. .W W ) Q o.8.B.I.^.).,X                                              ",
"                                              6XP.Z.l.l.i.X.W W T T  . .R  .<.X.Q Q X.:. .R  . .R R W W o.i.n.z.B.J.7X                                              ",
"                                                r.*.( 5.9.X.Q Q R W  .O.W ) O.) R R ) X.) W ` X.W W Q Q X.0.5.( =.t.                                                ",
"                                                e.} % P @.../ ) W W X.O.Q Q  .W F R R  .) W X.X.W W ) _ _ #.J % } r.                                                ",
"                                                T.t.5 - t G / ) W W `  .Q  .X.Q F R Q  .) Q  . .W Q ) / G A % % y.T.                                                ",
"                                                  x.+.p < *.5.$.) W  . .W Q o.Q F R Q o.) R  . .W ) ,.2.*.- 6 | d.                                                  ",
"                                                    f.} K z.v.w.,.Q X.X.R Q :.Q F F ) :.Q R  .X.Q :.u.V.z.L } d.                                                    ",
"                                                      d.c.W././.a.W ,.,.W  .:.) R W  .:. .W :.,.W N././.R.c.d.                                                      ",
"                                                        !.|.%X1X^.2.2.,.X.o.:.,. .O.o.<.o.X.:.2.2./.1X*X|.!.                                                        ",
"                                                          -X9XsX2XI.2.` 3.2.:.:.:.:.:.<.3.2.) 3.I.<XsX7X-X                                                          ",
"                                                            qXeX1X:XC.,.3.2.2.2.<.2.2.<.3.2.,.S.%XqXyXwX                                                            ",
"                                                              $X7XqX(.p.o.:.2.2.>.2.2.3.o.,.p.(.tXqX@X                                                              ",
"                                                                wXkX2XI.:.) 2.2.>.:.2.2.` :.I.2XkXrX                                                                ",
"                                                                uXwXqX Xu.X.<.>.1.2.2.:.$.p..XqXwXuX                                                                ",
"                                                                  qXwXqXU.6.` :.2.2.,.` 8.L.qXwXqX                                                                  ",
"                                                                    yX7X+XF.,.o.2.,.,.,.L.XX7XwX                                                                    ",
"                                                                      wXqX:Xa.o.` W ,.n.,XqXqX                                                                      ",
"                                                                        uX,X(.^.U.U.^.].,XdX                                                                        ",
"                                                                            wX7X6X6X8XwX                                                                            ",
"                                                                                                                                                                    ",
"                                                                                                                                                                    "
};
