/* XPM */
static char *fca2f33dc73b4905ae345d6e628b362bN5N4IkleI8UGQkeq[] = {
/* columns rows colors chars-per-pixel */
"82 82 2 1 ",
"  c None",
". c #FFFFFF",
/* pixels */
"..................................................................................",
".                                                                                .",
".                                                                                .",
".                                                                                .",
".                                                                                .",
".                                                                                .",
".                                                                                .",
".                                                                                .",
".                                                                                .",
".                                                                                .",
".                                                                                .",
".                                                                                .",
".                                                                                .",
".                                                                                .",
".                                                                                .",
".                                                                                .",
".                                                                                .",
".                                                                                .",
".                                                                                .",
".                                                                                .",
".                                                                                .",
".                                                                                .",
".                                                                                .",
".                                                                                .",
".                                                                                .",
".                                                                                .",
".                                                                                .",
".                                                                                .",
".                                                                                .",
".                                                                                .",
".                                                                                .",
".                                                                                .",
".                                                                                .",
".                                                                                .",
".                                                                                .",
".                                                                                .",
".                                                                                .",
".                                                                                .",
".                                                                                .",
".                                                                                .",
".                                                                                .",
".                                                                                .",
".                                                                                .",
".                                                                                .",
".                                                                                .",
".                                                                                .",
".                                                                                .",
".                                                                                .",
".                                                                                .",
".                                                                                .",
".                                                                                .",
".                                                                                .",
".                                                                                .",
".                                                                                .",
".                                                                                .",
".                                                                                .",
".                                                                                .",
".                                                                                .",
".                                                                                .",
".                                                                                .",
".                                                                                .",
".                                                                                .",
".                                                                                .",
".                                                                                .",
".                                                                                .",
".                                                                                .",
".                                                                                .",
".                                                                                .",
".                                                                                .",
".                                                                                .",
".                                                                                .",
".                                                                                .",
".                                                                                .",
".                                                                                .",
".                                                                                .",
".                                                                                .",
".                                                                                .",
".                                                                                .",
".                                                                                .",
".                                                                                .",
".                                                                                .",
".................................................................................."
};
